<?xml version="1.0" standalone="no"?><svg xmlns:xlink="http://www.w3.org/1999/xlink" xmlns="http://www.w3.org/2000/svg" viewBox="0 0 1000 565.2196625398318" preserveAspectRatio="xMaxYMax slice"><g transform="scale(0.522384161312229)"><rect x="0" y="0" width="1914.3076923076922" height="1082" fill="#ffffff"/><rect x="0" y="0" width="83.23076923076923" height="83.23076923076923" fill="#ffffff"/><circle cx="20.81" cy="20.81" r="20.81" fill="#FF3565"/><circle cx="62.42999999999999" cy="20.81" r="20.81" fill="#FF3565"/><circle cx="20.81" cy="62.42999999999999" r="20.81" fill="#FF3565"/><circle cx="62.42999999999999" cy="62.42999999999999" r="20.81" fill="#FF3565"/><rect x="83.23076923076923" y="0" width="83.23076923076923" height="83.23076923076923" fill="#ffffff"/><circle cx="104.04" cy="20.81" r="20.81" fill="#FF3565"/><circle cx="145.66" cy="20.81" r="20.81" fill="#183FE1"/><circle cx="104.04" cy="62.42999999999999" r="20.81" fill="#183FE1"/><circle cx="145.66" cy="62.42999999999999" r="20.81" fill="#FF3565"/><circle cx="208.07500000000002" cy="41.615" r="41.615" fill="#183FE1"/><circle cx="291.305" cy="41.615" r="41.615" fill="#FF3565"/><rect x="332.9230769230769" y="0" width="83.23076923076923" height="83.23076923076923" fill="#ffffff"/><circle cx="353.73" cy="20.81" r="20.81" fill="#FF3565"/><circle cx="395.35" cy="20.81" r="20.81" fill="#FF3565"/><circle cx="353.73" cy="62.42999999999999" r="20.81" fill="#183FE1"/><circle cx="395.35" cy="62.42999999999999" r="20.81" fill="#FF3565"/><circle cx="457.765" cy="41.615" r="41.615" fill="#FF3565"/><rect x="499.38461538461536" y="0" width="83.23076923076923" height="83.23076923076923" fill="#ffffff"/><circle cx="520.1899999999999" cy="20.81" r="20.81" fill="#183FE1"/><circle cx="561.81" cy="20.81" r="20.81" fill="#183FE1"/><circle cx="520.1899999999999" cy="62.42999999999999" r="20.81" fill="#183FE1"/><circle cx="561.81" cy="62.42999999999999" r="20.81" fill="#183FE1"/><rect x="582.6153846153845" y="0" width="83.23076923076923" height="83.23076923076923" fill="#ffffff"/><circle cx="603.43" cy="20.81" r="20.81" fill="#183FE1"/><circle cx="645.04" cy="20.81" r="20.81" fill="#183FE1"/><circle cx="603.43" cy="62.42999999999999" r="20.81" fill="#FF3565"/><circle cx="645.04" cy="62.42999999999999" r="20.81" fill="#183FE1"/><rect x="665.8461538461538" y="0" width="83.23076923076923" height="83.23076923076923" fill="#ffffff"/><circle cx="686.66" cy="20.81" r="20.81" fill="#183FE1"/><circle cx="728.27" cy="20.81" r="20.81" fill="#FF3565"/><circle cx="686.66" cy="62.42999999999999" r="20.81" fill="#FF3565"/><circle cx="728.27" cy="62.42999999999999" r="20.81" fill="#FF3565"/><circle cx="790.695" cy="41.615" r="41.615" fill="#FF3565"/><rect x="832.3076923076923" y="0" width="83.23076923076923" height="83.23076923076923" fill="#ffffff"/><circle cx="853.1199999999999" cy="20.81" r="20.81" fill="#FF3565"/><circle cx="894.7299999999999" cy="20.81" r="20.81" fill="#FF3565"/><circle cx="853.1199999999999" cy="62.42999999999999" r="20.81" fill="#183FE1"/><circle cx="894.7299999999999" cy="62.42999999999999" r="20.81" fill="#FF3565"/><circle cx="957.155" cy="41.615" r="41.615" fill="#183FE1"/><rect x="998.7692307692307" y="0" width="83.23076923076923" height="83.23076923076923" fill="#ffffff"/><circle cx="1019.5799999999999" cy="20.81" r="20.81" fill="#183FE1"/><circle cx="1061.19" cy="20.81" r="20.81" fill="#FF3565"/><circle cx="1019.5799999999999" cy="62.42999999999999" r="20.81" fill="#FF3565"/><circle cx="1061.19" cy="62.42999999999999" r="20.81" fill="#FF3565"/><rect x="1082" y="0" width="83.23076923076923" height="83.23076923076923" fill="#ffffff"/><circle cx="1102.81" cy="20.81" r="20.81" fill="#183FE1"/><circle cx="1144.4299999999998" cy="20.81" r="20.81" fill="#183FE1"/><circle cx="1102.81" cy="62.42999999999999" r="20.81" fill="#183FE1"/><circle cx="1144.4299999999998" cy="62.42999999999999" r="20.81" fill="#FF3565"/><circle cx="1206.845" cy="41.615" r="41.615" fill="#FF3565"/><circle cx="1290.075" cy="41.615" r="41.615" fill="#183FE1"/><circle cx="1373.305" cy="41.615" r="41.615" fill="#183FE1"/><rect x="1414.923076923077" y="0" width="83.23076923076923" height="83.23076923076923" fill="#ffffff"/><circle cx="1435.73" cy="20.81" r="20.81" fill="#FF3565"/><circle cx="1477.35" cy="20.81" r="20.81" fill="#183FE1"/><circle cx="1435.73" cy="62.42999999999999" r="20.81" fill="#183FE1"/><circle cx="1477.35" cy="62.42999999999999" r="20.81" fill="#183FE1"/><rect x="1498.1538461538462" y="0" width="83.23076923076923" height="83.23076923076923" fill="#ffffff"/><circle cx="1518.96" cy="20.81" r="20.81" fill="#FF3565"/><circle cx="1560.58" cy="20.81" r="20.81" fill="#FF3565"/><circle cx="1518.96" cy="62.42999999999999" r="20.81" fill="#183FE1"/><circle cx="1560.58" cy="62.42999999999999" r="20.81" fill="#183FE1"/><rect x="1581.3846153846152" y="0" width="83.23076923076923" height="83.23076923076923" fill="#ffffff"/><circle cx="1602.19" cy="20.81" r="20.81" fill="#FF3565"/><circle cx="1643.81" cy="20.81" r="20.81" fill="#FF3565"/><circle cx="1602.19" cy="62.42999999999999" r="20.81" fill="#183FE1"/><circle cx="1643.81" cy="62.42999999999999" r="20.81" fill="#183FE1"/><circle cx="1706.235" cy="41.615" r="41.615" fill="#FF3565"/><circle cx="1789.465" cy="41.615" r="41.615" fill="#183FE1"/><rect x="1831.0769230769229" y="0" width="83.23076923076923" height="83.23076923076923" fill="#ffffff"/><circle cx="1851.8899999999999" cy="20.81" r="20.81" fill="#FF3565"/><circle cx="1893.5" cy="20.81" r="20.81" fill="#FF3565"/><circle cx="1851.8899999999999" cy="62.42999999999999" r="20.81" fill="#FF3565"/><circle cx="1893.5" cy="62.42999999999999" r="20.81" fill="#183FE1"/><rect x="0" y="83.23076923076923" width="83.23076923076923" height="83.23076923076923" fill="#ffffff"/><circle cx="20.81" cy="104.04" r="20.81" fill="#183FE1"/><circle cx="62.42999999999999" cy="104.04" r="20.81" fill="#183FE1"/><circle cx="20.81" cy="145.66" r="20.81" fill="#FF3565"/><circle cx="62.42999999999999" cy="145.66" r="20.81" fill="#FF3565"/><circle cx="124.845" cy="124.845" r="41.615" fill="#FF3565"/><circle cx="208.07500000000002" cy="124.845" r="41.615" fill="#183FE1"/><rect x="249.69230769230768" y="83.23076923076923" width="83.23076923076923" height="83.23076923076923" fill="#ffffff"/><circle cx="270.5" cy="104.04" r="20.81" fill="#FF3565"/><circle cx="312.12" cy="104.04" r="20.81" fill="#FF3565"/><circle cx="270.5" cy="145.66" r="20.81" fill="#183FE1"/><circle cx="312.12" cy="145.66" r="20.81" fill="#FF3565"/><rect x="332.9230769230769" y="83.23076923076923" width="83.23076923076923" height="83.23076923076923" fill="#ffffff"/><circle cx="353.73" cy="104.04" r="20.81" fill="#FF3565"/><circle cx="395.35" cy="104.04" r="20.81" fill="#183FE1"/><circle cx="353.73" cy="145.66" r="20.81" fill="#FF3565"/><circle cx="395.35" cy="145.66" r="20.81" fill="#183FE1"/><rect x="416.15384615384613" y="83.23076923076923" width="83.23076923076923" height="83.23076923076923" fill="#ffffff"/><circle cx="436.96" cy="104.04" r="20.81" fill="#FF3565"/><circle cx="478.58" cy="104.04" r="20.81" fill="#FF3565"/><circle cx="436.96" cy="145.66" r="20.81" fill="#FF3565"/><circle cx="478.58" cy="145.66" r="20.81" fill="#183FE1"/><circle cx="540.995" cy="124.845" r="41.615" fill="#FF3565"/><circle cx="624.235" cy="124.845" r="41.615" fill="#183FE1"/><circle cx="707.465" cy="124.845" r="41.615" fill="#FF3565"/><rect x="749.0769230769231" y="83.23076923076923" width="83.23076923076923" height="83.23076923076923" fill="#ffffff"/><circle cx="769.89" cy="104.04" r="20.81" fill="#183FE1"/><circle cx="811.5" cy="104.04" r="20.81" fill="#183FE1"/><circle cx="769.89" cy="145.66" r="20.81" fill="#183FE1"/><circle cx="811.5" cy="145.66" r="20.81" fill="#FF3565"/><circle cx="873.925" cy="124.845" r="41.615" fill="#FF3565"/><rect x="915.5384615384614" y="83.23076923076923" width="83.23076923076923" height="83.23076923076923" fill="#ffffff"/><circle cx="936.3499999999999" cy="104.04" r="20.81" fill="#183FE1"/><circle cx="977.9599999999999" cy="104.04" r="20.81" fill="#FF3565"/><circle cx="936.3499999999999" cy="145.66" r="20.81" fill="#183FE1"/><circle cx="977.9599999999999" cy="145.66" r="20.81" fill="#183FE1"/><circle cx="1040.385" cy="124.845" r="41.615" fill="#FF3565"/><rect x="1082" y="83.23076923076923" width="83.23076923076923" height="83.23076923076923" fill="#ffffff"/><circle cx="1102.81" cy="104.04" r="20.81" fill="#183FE1"/><circle cx="1144.4299999999998" cy="104.04" r="20.81" fill="#183FE1"/><circle cx="1102.81" cy="145.66" r="20.81" fill="#183FE1"/><circle cx="1144.4299999999998" cy="145.66" r="20.81" fill="#FF3565"/><rect x="1165.230769230769" y="83.23076923076923" width="83.23076923076923" height="83.23076923076923" fill="#ffffff"/><circle cx="1186.04" cy="104.04" r="20.81" fill="#183FE1"/><circle cx="1227.6599999999999" cy="104.04" r="20.81" fill="#FF3565"/><circle cx="1186.04" cy="145.66" r="20.81" fill="#183FE1"/><circle cx="1227.6599999999999" cy="145.66" r="20.81" fill="#FF3565"/><rect x="1248.4615384615383" y="83.23076923076923" width="83.23076923076923" height="83.23076923076923" fill="#ffffff"/><circle cx="1269.27" cy="104.04" r="20.81" fill="#183FE1"/><circle cx="1310.8899999999999" cy="104.04" r="20.81" fill="#183FE1"/><circle cx="1269.27" cy="145.66" r="20.81" fill="#FF3565"/><circle cx="1310.8899999999999" cy="145.66" r="20.81" fill="#183FE1"/><rect x="1331.6923076923076" y="83.23076923076923" width="83.23076923076923" height="83.23076923076923" fill="#ffffff"/><circle cx="1352.5" cy="104.04" r="20.81" fill="#FF3565"/><circle cx="1394.12" cy="104.04" r="20.81" fill="#183FE1"/><circle cx="1352.5" cy="145.66" r="20.81" fill="#183FE1"/><circle cx="1394.12" cy="145.66" r="20.81" fill="#183FE1"/><rect x="1414.923076923077" y="83.23076923076923" width="83.23076923076923" height="83.23076923076923" fill="#ffffff"/><circle cx="1435.73" cy="104.04" r="20.81" fill="#FF3565"/><circle cx="1477.35" cy="104.04" r="20.81" fill="#FF3565"/><circle cx="1435.73" cy="145.66" r="20.81" fill="#FF3565"/><circle cx="1477.35" cy="145.66" r="20.81" fill="#FF3565"/><rect x="1498.1538461538462" y="83.23076923076923" width="83.23076923076923" height="83.23076923076923" fill="#ffffff"/><circle cx="1518.96" cy="104.04" r="20.81" fill="#183FE1"/><circle cx="1560.58" cy="104.04" r="20.81" fill="#FF3565"/><circle cx="1518.96" cy="145.66" r="20.81" fill="#FF3565"/><circle cx="1560.58" cy="145.66" r="20.81" fill="#183FE1"/><circle cx="1622.9950000000001" cy="124.845" r="41.615" fill="#FF3565"/><rect x="1664.6153846153845" y="83.23076923076923" width="83.23076923076923" height="83.23076923076923" fill="#ffffff"/><circle cx="1685.4299999999998" cy="104.04" r="20.81" fill="#183FE1"/><circle cx="1727.04" cy="104.04" r="20.81" fill="#FF3565"/><circle cx="1685.4299999999998" cy="145.66" r="20.81" fill="#183FE1"/><circle cx="1727.04" cy="145.66" r="20.81" fill="#183FE1"/><circle cx="1789.465" cy="124.845" r="41.615" fill="#FF3565"/><rect x="1831.0769230769229" y="83.23076923076923" width="83.23076923076923" height="83.23076923076923" fill="#ffffff"/><circle cx="1851.8899999999999" cy="104.04" r="20.81" fill="#183FE1"/><circle cx="1893.5" cy="104.04" r="20.81" fill="#183FE1"/><circle cx="1851.8899999999999" cy="145.66" r="20.81" fill="#FF3565"/><circle cx="1893.5" cy="145.66" r="20.81" fill="#FF3565"/><circle cx="41.615" cy="208.07500000000002" r="41.615" fill="#183FE1"/><rect x="83.23076923076923" y="166.46153846153845" width="83.23076923076923" height="83.23076923076923" fill="#ffffff"/><circle cx="104.04" cy="187.27" r="20.81" fill="#FF3565"/><circle cx="145.66" cy="187.27" r="20.81" fill="#183FE1"/><circle cx="104.04" cy="228.89000000000001" r="20.81" fill="#FF3565"/><circle cx="145.66" cy="228.89000000000001" r="20.81" fill="#183FE1"/><circle cx="208.07500000000002" cy="208.07500000000002" r="41.615" fill="#183FE1"/><circle cx="291.305" cy="208.07500000000002" r="41.615" fill="#FF3565"/><circle cx="374.535" cy="208.07500000000002" r="41.615" fill="#183FE1"/><rect x="416.15384615384613" y="166.46153846153845" width="83.23076923076923" height="83.23076923076923" fill="#ffffff"/><circle cx="436.96" cy="187.27" r="20.81" fill="#183FE1"/><circle cx="478.58" cy="187.27" r="20.81" fill="#183FE1"/><circle cx="436.96" cy="228.89000000000001" r="20.81" fill="#183FE1"/><circle cx="478.58" cy="228.89000000000001" r="20.81" fill="#FF3565"/><rect x="499.38461538461536" y="166.46153846153845" width="83.23076923076923" height="83.23076923076923" fill="#ffffff"/><circle cx="520.1899999999999" cy="187.27" r="20.81" fill="#183FE1"/><circle cx="561.81" cy="187.27" r="20.81" fill="#FF3565"/><circle cx="520.1899999999999" cy="228.89000000000001" r="20.81" fill="#183FE1"/><circle cx="561.81" cy="228.89000000000001" r="20.81" fill="#FF3565"/><circle cx="624.235" cy="208.07500000000002" r="41.615" fill="#FF3565"/><rect x="665.8461538461538" y="166.46153846153845" width="83.23076923076923" height="83.23076923076923" fill="#ffffff"/><circle cx="686.66" cy="187.27" r="20.81" fill="#183FE1"/><circle cx="728.27" cy="187.27" r="20.81" fill="#183FE1"/><circle cx="686.66" cy="228.89000000000001" r="20.81" fill="#FF3565"/><circle cx="728.27" cy="228.89000000000001" r="20.81" fill="#FF3565"/><circle cx="790.695" cy="208.07500000000002" r="41.615" fill="#FF3565"/><circle cx="873.925" cy="208.07500000000002" r="41.615" fill="#183FE1"/><circle cx="957.155" cy="208.07500000000002" r="41.615" fill="#183FE1"/><circle cx="1040.385" cy="208.07500000000002" r="41.615" fill="#FF3565"/><rect x="1082" y="166.46153846153845" width="83.23076923076923" height="83.23076923076923" fill="#ffffff"/><circle cx="1102.81" cy="187.27" r="20.81" fill="#FF3565"/><circle cx="1144.4299999999998" cy="187.27" r="20.81" fill="#FF3565"/><circle cx="1102.81" cy="228.89000000000001" r="20.81" fill="#FF3565"/><circle cx="1144.4299999999998" cy="228.89000000000001" r="20.81" fill="#183FE1"/><circle cx="1206.845" cy="208.07500000000002" r="41.615" fill="#183FE1"/><circle cx="1290.075" cy="208.07500000000002" r="41.615" fill="#FF3565"/><rect x="1331.6923076923076" y="166.46153846153845" width="83.23076923076923" height="83.23076923076923" fill="#ffffff"/><circle cx="1352.5" cy="187.27" r="20.81" fill="#183FE1"/><circle cx="1394.12" cy="187.27" r="20.81" fill="#183FE1"/><circle cx="1352.5" cy="228.89000000000001" r="20.81" fill="#FF3565"/><circle cx="1394.12" cy="228.89000000000001" r="20.81" fill="#183FE1"/><circle cx="1456.535" cy="208.07500000000002" r="41.615" fill="#FF3565"/><rect x="1498.1538461538462" y="166.46153846153845" width="83.23076923076923" height="83.23076923076923" fill="#ffffff"/><circle cx="1518.96" cy="187.27" r="20.81" fill="#183FE1"/><circle cx="1560.58" cy="187.27" r="20.81" fill="#FF3565"/><circle cx="1518.96" cy="228.89000000000001" r="20.81" fill="#FF3565"/><circle cx="1560.58" cy="228.89000000000001" r="20.81" fill="#183FE1"/><circle cx="1622.9950000000001" cy="208.07500000000002" r="41.615" fill="#183FE1"/><circle cx="1706.235" cy="208.07500000000002" r="41.615" fill="#FF3565"/><rect x="1747.8461538461538" y="166.46153846153845" width="83.23076923076923" height="83.23076923076923" fill="#ffffff"/><circle cx="1768.6599999999999" cy="187.27" r="20.81" fill="#183FE1"/><circle cx="1810.27" cy="187.27" r="20.81" fill="#FF3565"/><circle cx="1768.6599999999999" cy="228.89000000000001" r="20.81" fill="#183FE1"/><circle cx="1810.27" cy="228.89000000000001" r="20.81" fill="#FF3565"/><rect x="1831.0769230769229" y="166.46153846153845" width="83.23076923076923" height="83.23076923076923" fill="#ffffff"/><circle cx="1851.8899999999999" cy="187.27" r="20.81" fill="#FF3565"/><circle cx="1893.5" cy="187.27" r="20.81" fill="#183FE1"/><circle cx="1851.8899999999999" cy="228.89000000000001" r="20.81" fill="#183FE1"/><circle cx="1893.5" cy="228.89000000000001" r="20.81" fill="#FF3565"/><rect x="0" y="249.69230769230768" width="83.23076923076923" height="83.23076923076923" fill="#ffffff"/><circle cx="20.81" cy="270.5" r="20.81" fill="#183FE1"/><circle cx="62.42999999999999" cy="270.5" r="20.81" fill="#FF3565"/><circle cx="20.81" cy="312.12" r="20.81" fill="#FF3565"/><circle cx="62.42999999999999" cy="312.12" r="20.81" fill="#FF3565"/><circle cx="124.845" cy="291.305" r="41.615" fill="#183FE1"/><rect x="166.46153846153845" y="249.69230769230768" width="83.23076923076923" height="83.23076923076923" fill="#ffffff"/><circle cx="187.27" cy="270.5" r="20.81" fill="#183FE1"/><circle cx="228.89000000000001" cy="270.5" r="20.81" fill="#183FE1"/><circle cx="187.27" cy="312.12" r="20.81" fill="#183FE1"/><circle cx="228.89000000000001" cy="312.12" r="20.81" fill="#183FE1"/><rect x="249.69230769230768" y="249.69230769230768" width="83.23076923076923" height="83.23076923076923" fill="#ffffff"/><circle cx="270.5" cy="270.5" r="20.81" fill="#183FE1"/><circle cx="312.12" cy="270.5" r="20.81" fill="#183FE1"/><circle cx="270.5" cy="312.12" r="20.81" fill="#FF3565"/><circle cx="312.12" cy="312.12" r="20.81" fill="#183FE1"/><rect x="332.9230769230769" y="249.69230769230768" width="83.23076923076923" height="83.23076923076923" fill="#ffffff"/><circle cx="353.73" cy="270.5" r="20.81" fill="#183FE1"/><circle cx="395.35" cy="270.5" r="20.81" fill="#183FE1"/><circle cx="353.73" cy="312.12" r="20.81" fill="#FF3565"/><circle cx="395.35" cy="312.12" r="20.81" fill="#183FE1"/><rect x="416.15384615384613" y="249.69230769230768" width="83.23076923076923" height="83.23076923076923" fill="#ffffff"/><circle cx="436.96" cy="270.5" r="20.81" fill="#FF3565"/><circle cx="478.58" cy="270.5" r="20.81" fill="#FF3565"/><circle cx="436.96" cy="312.12" r="20.81" fill="#183FE1"/><circle cx="478.58" cy="312.12" r="20.81" fill="#183FE1"/><circle cx="540.995" cy="291.305" r="41.615" fill="#183FE1"/><rect x="582.6153846153845" y="249.69230769230768" width="83.23076923076923" height="83.23076923076923" fill="#ffffff"/><circle cx="603.43" cy="270.5" r="20.81" fill="#183FE1"/><circle cx="645.04" cy="270.5" r="20.81" fill="#FF3565"/><circle cx="603.43" cy="312.12" r="20.81" fill="#FF3565"/><circle cx="645.04" cy="312.12" r="20.81" fill="#FF3565"/><circle cx="707.465" cy="291.305" r="41.615" fill="#FF3565"/><circle cx="790.695" cy="291.305" r="41.615" fill="#183FE1"/><rect x="832.3076923076923" y="249.69230769230768" width="83.23076923076923" height="83.23076923076923" fill="#ffffff"/><circle cx="853.1199999999999" cy="270.5" r="20.81" fill="#FF3565"/><circle cx="894.7299999999999" cy="270.5" r="20.81" fill="#FF3565"/><circle cx="853.1199999999999" cy="312.12" r="20.81" fill="#FF3565"/><circle cx="894.7299999999999" cy="312.12" r="20.81" fill="#FF3565"/><circle cx="957.155" cy="291.305" r="41.615" fill="#FF3565"/><circle cx="1040.385" cy="291.305" r="41.615" fill="#183FE1"/><circle cx="1123.615" cy="291.305" r="41.615" fill="#FF3565"/><circle cx="1206.845" cy="291.305" r="41.615" fill="#183FE1"/><rect x="1248.4615384615383" y="249.69230769230768" width="83.23076923076923" height="83.23076923076923" fill="#ffffff"/><circle cx="1269.27" cy="270.5" r="20.81" fill="#183FE1"/><circle cx="1310.8899999999999" cy="270.5" r="20.81" fill="#FF3565"/><circle cx="1269.27" cy="312.12" r="20.81" fill="#183FE1"/><circle cx="1310.8899999999999" cy="312.12" r="20.81" fill="#183FE1"/><rect x="1331.6923076923076" y="249.69230769230768" width="83.23076923076923" height="83.23076923076923" fill="#ffffff"/><circle cx="1352.5" cy="270.5" r="20.81" fill="#FF3565"/><circle cx="1394.12" cy="270.5" r="20.81" fill="#FF3565"/><circle cx="1352.5" cy="312.12" r="20.81" fill="#183FE1"/><circle cx="1394.12" cy="312.12" r="20.81" fill="#183FE1"/><circle cx="1456.535" cy="291.305" r="41.615" fill="#FF3565"/><circle cx="1539.765" cy="291.305" r="41.615" fill="#183FE1"/><rect x="1581.3846153846152" y="249.69230769230768" width="83.23076923076923" height="83.23076923076923" fill="#ffffff"/><circle cx="1602.19" cy="270.5" r="20.81" fill="#FF3565"/><circle cx="1643.81" cy="270.5" r="20.81" fill="#FF3565"/><circle cx="1602.19" cy="312.12" r="20.81" fill="#FF3565"/><circle cx="1643.81" cy="312.12" r="20.81" fill="#183FE1"/><rect x="1664.6153846153845" y="249.69230769230768" width="83.23076923076923" height="83.23076923076923" fill="#ffffff"/><circle cx="1685.4299999999998" cy="270.5" r="20.81" fill="#183FE1"/><circle cx="1727.04" cy="270.5" r="20.81" fill="#FF3565"/><circle cx="1685.4299999999998" cy="312.12" r="20.81" fill="#FF3565"/><circle cx="1727.04" cy="312.12" r="20.81" fill="#FF3565"/><circle cx="1789.465" cy="291.305" r="41.615" fill="#183FE1"/><circle cx="1872.695" cy="291.305" r="41.615" fill="#183FE1"/><circle cx="41.615" cy="374.535" r="41.615" fill="#FF3565"/><rect x="83.23076923076923" y="332.9230769230769" width="83.23076923076923" height="83.23076923076923" fill="#ffffff"/><circle cx="104.04" cy="353.73" r="20.81" fill="#183FE1"/><circle cx="145.66" cy="353.73" r="20.81" fill="#FF3565"/><circle cx="104.04" cy="395.35" r="20.81" fill="#183FE1"/><circle cx="145.66" cy="395.35" r="20.81" fill="#FF3565"/><rect x="166.46153846153845" y="332.9230769230769" width="83.23076923076923" height="83.23076923076923" fill="#ffffff"/><circle cx="187.27" cy="353.73" r="20.81" fill="#183FE1"/><circle cx="228.89000000000001" cy="353.73" r="20.81" fill="#183FE1"/><circle cx="187.27" cy="395.35" r="20.81" fill="#FF3565"/><circle cx="228.89000000000001" cy="395.35" r="20.81" fill="#183FE1"/><rect x="249.69230769230768" y="332.9230769230769" width="83.23076923076923" height="83.23076923076923" fill="#ffffff"/><circle cx="270.5" cy="353.73" r="20.81" fill="#FF3565"/><circle cx="312.12" cy="353.73" r="20.81" fill="#183FE1"/><circle cx="270.5" cy="395.35" r="20.81" fill="#183FE1"/><circle cx="312.12" cy="395.35" r="20.81" fill="#FF3565"/><rect x="332.9230769230769" y="332.9230769230769" width="83.23076923076923" height="83.23076923076923" fill="#ffffff"/><circle cx="353.73" cy="353.73" r="20.81" fill="#183FE1"/><circle cx="395.35" cy="353.73" r="20.81" fill="#FF3565"/><circle cx="353.73" cy="395.35" r="20.81" fill="#183FE1"/><circle cx="395.35" cy="395.35" r="20.81" fill="#183FE1"/><circle cx="457.765" cy="374.535" r="41.615" fill="#183FE1"/><rect x="499.38461538461536" y="332.9230769230769" width="83.23076923076923" height="83.23076923076923" fill="#ffffff"/><circle cx="520.1899999999999" cy="353.73" r="20.81" fill="#FF3565"/><circle cx="561.81" cy="353.73" r="20.81" fill="#FF3565"/><circle cx="520.1899999999999" cy="395.35" r="20.81" fill="#183FE1"/><circle cx="561.81" cy="395.35" r="20.81" fill="#FF3565"/><rect x="582.6153846153845" y="332.9230769230769" width="83.23076923076923" height="83.23076923076923" fill="#ffffff"/><circle cx="603.43" cy="353.73" r="20.81" fill="#FF3565"/><circle cx="645.04" cy="353.73" r="20.81" fill="#183FE1"/><circle cx="603.43" cy="395.35" r="20.81" fill="#183FE1"/><circle cx="645.04" cy="395.35" r="20.81" fill="#183FE1"/><circle cx="707.465" cy="374.535" r="41.615" fill="#FF3565"/><circle cx="790.695" cy="374.535" r="41.615" fill="#183FE1"/><circle cx="873.925" cy="374.535" r="41.615" fill="#FF3565"/><circle cx="957.155" cy="374.535" r="41.615" fill="#FF3565"/><circle cx="1040.385" cy="374.535" r="41.615" fill="#FF3565"/><circle cx="1123.615" cy="374.535" r="41.615" fill="#FF3565"/><circle cx="1206.845" cy="374.535" r="41.615" fill="#183FE1"/><circle cx="1290.075" cy="374.535" r="41.615" fill="#183FE1"/><circle cx="1373.305" cy="374.535" r="41.615" fill="#FF3565"/><circle cx="1456.535" cy="374.535" r="41.615" fill="#FF3565"/><circle cx="1539.765" cy="374.535" r="41.615" fill="#FF3565"/><circle cx="1622.9950000000001" cy="374.535" r="41.615" fill="#183FE1"/><circle cx="1706.235" cy="374.535" r="41.615" fill="#FF3565"/><rect x="1747.8461538461538" y="332.9230769230769" width="83.23076923076923" height="83.23076923076923" fill="#ffffff"/><circle cx="1768.6599999999999" cy="353.73" r="20.81" fill="#FF3565"/><circle cx="1810.27" cy="353.73" r="20.81" fill="#FF3565"/><circle cx="1768.6599999999999" cy="395.35" r="20.81" fill="#183FE1"/><circle cx="1810.27" cy="395.35" r="20.81" fill="#FF3565"/><rect x="1831.0769230769229" y="332.9230769230769" width="83.23076923076923" height="83.23076923076923" fill="#ffffff"/><circle cx="1851.8899999999999" cy="353.73" r="20.81" fill="#183FE1"/><circle cx="1893.5" cy="353.73" r="20.81" fill="#183FE1"/><circle cx="1851.8899999999999" cy="395.35" r="20.81" fill="#FF3565"/><circle cx="1893.5" cy="395.35" r="20.81" fill="#FF3565"/><rect x="0" y="416.15384615384613" width="83.23076923076923" height="83.23076923076923" fill="#ffffff"/><circle cx="20.81" cy="436.96" r="20.81" fill="#183FE1"/><circle cx="62.42999999999999" cy="436.96" r="20.81" fill="#183FE1"/><circle cx="20.81" cy="478.58" r="20.81" fill="#FF3565"/><circle cx="62.42999999999999" cy="478.58" r="20.81" fill="#183FE1"/><rect x="83.23076923076923" y="416.15384615384613" width="83.23076923076923" height="83.23076923076923" fill="#ffffff"/><circle cx="104.04" cy="436.96" r="20.81" fill="#183FE1"/><circle cx="145.66" cy="436.96" r="20.81" fill="#183FE1"/><circle cx="104.04" cy="478.58" r="20.81" fill="#183FE1"/><circle cx="145.66" cy="478.58" r="20.81" fill="#FF3565"/><rect x="166.46153846153845" y="416.15384615384613" width="83.23076923076923" height="83.23076923076923" fill="#ffffff"/><circle cx="187.27" cy="436.96" r="20.81" fill="#FF3565"/><circle cx="228.89000000000001" cy="436.96" r="20.81" fill="#183FE1"/><circle cx="187.27" cy="478.58" r="20.81" fill="#FF3565"/><circle cx="228.89000000000001" cy="478.58" r="20.81" fill="#183FE1"/><circle cx="291.305" cy="457.765" r="41.615" fill="#183FE1"/><circle cx="374.535" cy="457.765" r="41.615" fill="#FF3565"/><circle cx="457.765" cy="457.765" r="41.615" fill="#FF3565"/><circle cx="540.995" cy="457.765" r="41.615" fill="#183FE1"/><rect x="582.6153846153845" y="416.15384615384613" width="83.23076923076923" height="83.23076923076923" fill="#ffffff"/><circle cx="603.43" cy="436.96" r="20.81" fill="#183FE1"/><circle cx="645.04" cy="436.96" r="20.81" fill="#FF3565"/><circle cx="603.43" cy="478.58" r="20.81" fill="#FF3565"/><circle cx="645.04" cy="478.58" r="20.81" fill="#183FE1"/><rect x="665.8461538461538" y="416.15384615384613" width="83.23076923076923" height="83.23076923076923" fill="#ffffff"/><circle cx="686.66" cy="436.96" r="20.81" fill="#FF3565"/><circle cx="728.27" cy="436.96" r="20.81" fill="#183FE1"/><circle cx="686.66" cy="478.58" r="20.81" fill="#FF3565"/><circle cx="728.27" cy="478.58" r="20.81" fill="#183FE1"/><rect x="749.0769230769231" y="416.15384615384613" width="83.23076923076923" height="83.23076923076923" fill="#ffffff"/><circle cx="769.89" cy="436.96" r="20.81" fill="#FF3565"/><circle cx="811.5" cy="436.96" r="20.81" fill="#183FE1"/><circle cx="769.89" cy="478.58" r="20.81" fill="#FF3565"/><circle cx="811.5" cy="478.58" r="20.81" fill="#FF3565"/><circle cx="873.925" cy="457.765" r="41.615" fill="#183FE1"/><circle cx="957.155" cy="457.765" r="41.615" fill="#183FE1"/><circle cx="1040.385" cy="457.765" r="41.615" fill="#183FE1"/><rect x="1082" y="416.15384615384613" width="83.23076923076923" height="83.23076923076923" fill="#ffffff"/><circle cx="1102.81" cy="436.96" r="20.81" fill="#183FE1"/><circle cx="1144.4299999999998" cy="436.96" r="20.81" fill="#183FE1"/><circle cx="1102.81" cy="478.58" r="20.81" fill="#183FE1"/><circle cx="1144.4299999999998" cy="478.58" r="20.81" fill="#FF3565"/><circle cx="1206.845" cy="457.765" r="41.615" fill="#FF3565"/><rect x="1248.4615384615383" y="416.15384615384613" width="83.23076923076923" height="83.23076923076923" fill="#ffffff"/><circle cx="1269.27" cy="436.96" r="20.81" fill="#183FE1"/><circle cx="1310.8899999999999" cy="436.96" r="20.81" fill="#FF3565"/><circle cx="1269.27" cy="478.58" r="20.81" fill="#FF3565"/><circle cx="1310.8899999999999" cy="478.58" r="20.81" fill="#FF3565"/><circle cx="1373.305" cy="457.765" r="41.615" fill="#183FE1"/><rect x="1414.923076923077" y="416.15384615384613" width="83.23076923076923" height="83.23076923076923" fill="#ffffff"/><circle cx="1435.73" cy="436.96" r="20.81" fill="#183FE1"/><circle cx="1477.35" cy="436.96" r="20.81" fill="#183FE1"/><circle cx="1435.73" cy="478.58" r="20.81" fill="#FF3565"/><circle cx="1477.35" cy="478.58" r="20.81" fill="#183FE1"/><rect x="1498.1538461538462" y="416.15384615384613" width="83.23076923076923" height="83.23076923076923" fill="#ffffff"/><circle cx="1518.96" cy="436.96" r="20.81" fill="#FF3565"/><circle cx="1560.58" cy="436.96" r="20.81" fill="#183FE1"/><circle cx="1518.96" cy="478.58" r="20.81" fill="#183FE1"/><circle cx="1560.58" cy="478.58" r="20.81" fill="#FF3565"/><rect x="1581.3846153846152" y="416.15384615384613" width="83.23076923076923" height="83.23076923076923" fill="#ffffff"/><circle cx="1602.19" cy="436.96" r="20.81" fill="#183FE1"/><circle cx="1643.81" cy="436.96" r="20.81" fill="#183FE1"/><circle cx="1602.19" cy="478.58" r="20.81" fill="#183FE1"/><circle cx="1643.81" cy="478.58" r="20.81" fill="#FF3565"/><circle cx="1706.235" cy="457.765" r="41.615" fill="#FF3565"/><circle cx="1789.465" cy="457.765" r="41.615" fill="#FF3565"/><circle cx="1872.695" cy="457.765" r="41.615" fill="#FF3565"/><rect x="0" y="499.38461538461536" width="83.23076923076923" height="83.23076923076923" fill="#ffffff"/><circle cx="20.81" cy="520.1899999999999" r="20.81" fill="#183FE1"/><circle cx="62.42999999999999" cy="520.1899999999999" r="20.81" fill="#FF3565"/><circle cx="20.81" cy="561.81" r="20.81" fill="#183FE1"/><circle cx="62.42999999999999" cy="561.81" r="20.81" fill="#183FE1"/><circle cx="124.845" cy="540.995" r="41.615" fill="#183FE1"/><rect x="166.46153846153845" y="499.38461538461536" width="83.23076923076923" height="83.23076923076923" fill="#ffffff"/><circle cx="187.27" cy="520.1899999999999" r="20.81" fill="#183FE1"/><circle cx="228.89000000000001" cy="520.1899999999999" r="20.81" fill="#FF3565"/><circle cx="187.27" cy="561.81" r="20.81" fill="#FF3565"/><circle cx="228.89000000000001" cy="561.81" r="20.81" fill="#183FE1"/><rect x="249.69230769230768" y="499.38461538461536" width="83.23076923076923" height="83.23076923076923" fill="#ffffff"/><circle cx="270.5" cy="520.1899999999999" r="20.81" fill="#FF3565"/><circle cx="312.12" cy="520.1899999999999" r="20.81" fill="#FF3565"/><circle cx="270.5" cy="561.81" r="20.81" fill="#183FE1"/><circle cx="312.12" cy="561.81" r="20.81" fill="#183FE1"/><rect x="332.9230769230769" y="499.38461538461536" width="83.23076923076923" height="83.23076923076923" fill="#ffffff"/><circle cx="353.73" cy="520.1899999999999" r="20.81" fill="#183FE1"/><circle cx="395.35" cy="520.1899999999999" r="20.81" fill="#FF3565"/><circle cx="353.73" cy="561.81" r="20.81" fill="#183FE1"/><circle cx="395.35" cy="561.81" r="20.81" fill="#FF3565"/><rect x="416.15384615384613" y="499.38461538461536" width="83.23076923076923" height="83.23076923076923" fill="#ffffff"/><circle cx="436.96" cy="520.1899999999999" r="20.81" fill="#183FE1"/><circle cx="478.58" cy="520.1899999999999" r="20.81" fill="#183FE1"/><circle cx="436.96" cy="561.81" r="20.81" fill="#183FE1"/><circle cx="478.58" cy="561.81" r="20.81" fill="#FF3565"/><circle cx="540.995" cy="540.995" r="41.615" fill="#183FE1"/><rect x="582.6153846153845" y="499.38461538461536" width="83.23076923076923" height="83.23076923076923" fill="#ffffff"/><circle cx="603.43" cy="520.1899999999999" r="20.81" fill="#FF3565"/><circle cx="645.04" cy="520.1899999999999" r="20.81" fill="#FF3565"/><circle cx="603.43" cy="561.81" r="20.81" fill="#FF3565"/><circle cx="645.04" cy="561.81" r="20.81" fill="#FF3565"/><circle cx="707.465" cy="540.995" r="41.615" fill="#183FE1"/><rect x="749.0769230769231" y="499.38461538461536" width="83.23076923076923" height="83.23076923076923" fill="#ffffff"/><circle cx="769.89" cy="520.1899999999999" r="20.81" fill="#183FE1"/><circle cx="811.5" cy="520.1899999999999" r="20.81" fill="#183FE1"/><circle cx="769.89" cy="561.81" r="20.81" fill="#183FE1"/><circle cx="811.5" cy="561.81" r="20.81" fill="#183FE1"/><rect x="832.3076923076923" y="499.38461538461536" width="83.23076923076923" height="83.23076923076923" fill="#ffffff"/><circle cx="853.1199999999999" cy="520.1899999999999" r="20.81" fill="#FF3565"/><circle cx="894.7299999999999" cy="520.1899999999999" r="20.81" fill="#183FE1"/><circle cx="853.1199999999999" cy="561.81" r="20.81" fill="#FF3565"/><circle cx="894.7299999999999" cy="561.81" r="20.81" fill="#183FE1"/><circle cx="957.155" cy="540.995" r="41.615" fill="#183FE1"/><rect x="998.7692307692307" y="499.38461538461536" width="83.23076923076923" height="83.23076923076923" fill="#ffffff"/><circle cx="1019.5799999999999" cy="520.1899999999999" r="20.81" fill="#FF3565"/><circle cx="1061.19" cy="520.1899999999999" r="20.81" fill="#183FE1"/><circle cx="1019.5799999999999" cy="561.81" r="20.81" fill="#183FE1"/><circle cx="1061.19" cy="561.81" r="20.81" fill="#FF3565"/><circle cx="1123.615" cy="540.995" r="41.615" fill="#183FE1"/><rect x="1165.230769230769" y="499.38461538461536" width="83.23076923076923" height="83.23076923076923" fill="#ffffff"/><circle cx="1186.04" cy="520.1899999999999" r="20.81" fill="#FF3565"/><circle cx="1227.6599999999999" cy="520.1899999999999" r="20.81" fill="#FF3565"/><circle cx="1186.04" cy="561.81" r="20.81" fill="#183FE1"/><circle cx="1227.6599999999999" cy="561.81" r="20.81" fill="#183FE1"/><rect x="1248.4615384615383" y="499.38461538461536" width="83.23076923076923" height="83.23076923076923" fill="#ffffff"/><circle cx="1269.27" cy="520.1899999999999" r="20.81" fill="#183FE1"/><circle cx="1310.8899999999999" cy="520.1899999999999" r="20.81" fill="#FF3565"/><circle cx="1269.27" cy="561.81" r="20.81" fill="#FF3565"/><circle cx="1310.8899999999999" cy="561.81" r="20.81" fill="#183FE1"/><circle cx="1373.305" cy="540.995" r="41.615" fill="#183FE1"/><circle cx="1456.535" cy="540.995" r="41.615" fill="#FF3565"/><rect x="1498.1538461538462" y="499.38461538461536" width="83.23076923076923" height="83.23076923076923" fill="#ffffff"/><circle cx="1518.96" cy="520.1899999999999" r="20.81" fill="#183FE1"/><circle cx="1560.58" cy="520.1899999999999" r="20.81" fill="#FF3565"/><circle cx="1518.96" cy="561.81" r="20.81" fill="#FF3565"/><circle cx="1560.58" cy="561.81" r="20.81" fill="#183FE1"/><circle cx="1622.9950000000001" cy="540.995" r="41.615" fill="#183FE1"/><rect x="1664.6153846153845" y="499.38461538461536" width="83.23076923076923" height="83.23076923076923" fill="#ffffff"/><circle cx="1685.4299999999998" cy="520.1899999999999" r="20.81" fill="#FF3565"/><circle cx="1727.04" cy="520.1899999999999" r="20.81" fill="#FF3565"/><circle cx="1685.4299999999998" cy="561.81" r="20.81" fill="#183FE1"/><circle cx="1727.04" cy="561.81" r="20.81" fill="#FF3565"/><circle cx="1789.465" cy="540.995" r="41.615" fill="#183FE1"/><circle cx="1872.695" cy="540.995" r="41.615" fill="#183FE1"/><circle cx="41.615" cy="624.235" r="41.615" fill="#183FE1"/><circle cx="124.845" cy="624.235" r="41.615" fill="#FF3565"/><rect x="166.46153846153845" y="582.6153846153845" width="83.23076923076923" height="83.23076923076923" fill="#ffffff"/><circle cx="187.27" cy="603.43" r="20.81" fill="#183FE1"/><circle cx="228.89000000000001" cy="603.43" r="20.81" fill="#183FE1"/><circle cx="187.27" cy="645.04" r="20.81" fill="#183FE1"/><circle cx="228.89000000000001" cy="645.04" r="20.81" fill="#FF3565"/><rect x="249.69230769230768" y="582.6153846153845" width="83.23076923076923" height="83.23076923076923" fill="#ffffff"/><circle cx="270.5" cy="603.43" r="20.81" fill="#183FE1"/><circle cx="312.12" cy="603.43" r="20.81" fill="#FF3565"/><circle cx="270.5" cy="645.04" r="20.81" fill="#FF3565"/><circle cx="312.12" cy="645.04" r="20.81" fill="#183FE1"/><circle cx="374.535" cy="624.235" r="41.615" fill="#183FE1"/><circle cx="457.765" cy="624.235" r="41.615" fill="#183FE1"/><circle cx="540.995" cy="624.235" r="41.615" fill="#FF3565"/><circle cx="624.235" cy="624.235" r="41.615" fill="#183FE1"/><circle cx="707.465" cy="624.235" r="41.615" fill="#FF3565"/><circle cx="790.695" cy="624.235" r="41.615" fill="#FF3565"/><rect x="832.3076923076923" y="582.6153846153845" width="83.23076923076923" height="83.23076923076923" fill="#ffffff"/><circle cx="853.1199999999999" cy="603.43" r="20.81" fill="#FF3565"/><circle cx="894.7299999999999" cy="603.43" r="20.81" fill="#FF3565"/><circle cx="853.1199999999999" cy="645.04" r="20.81" fill="#FF3565"/><circle cx="894.7299999999999" cy="645.04" r="20.81" fill="#FF3565"/><rect x="915.5384615384614" y="582.6153846153845" width="83.23076923076923" height="83.23076923076923" fill="#ffffff"/><circle cx="936.3499999999999" cy="603.43" r="20.81" fill="#FF3565"/><circle cx="977.9599999999999" cy="603.43" r="20.81" fill="#183FE1"/><circle cx="936.3499999999999" cy="645.04" r="20.81" fill="#FF3565"/><circle cx="977.9599999999999" cy="645.04" r="20.81" fill="#183FE1"/><rect x="998.7692307692307" y="582.6153846153845" width="83.23076923076923" height="83.23076923076923" fill="#ffffff"/><circle cx="1019.5799999999999" cy="603.43" r="20.81" fill="#183FE1"/><circle cx="1061.19" cy="603.43" r="20.81" fill="#183FE1"/><circle cx="1019.5799999999999" cy="645.04" r="20.81" fill="#183FE1"/><circle cx="1061.19" cy="645.04" r="20.81" fill="#FF3565"/><rect x="1082" y="582.6153846153845" width="83.23076923076923" height="83.23076923076923" fill="#ffffff"/><circle cx="1102.81" cy="603.43" r="20.81" fill="#183FE1"/><circle cx="1144.4299999999998" cy="603.43" r="20.81" fill="#FF3565"/><circle cx="1102.81" cy="645.04" r="20.81" fill="#183FE1"/><circle cx="1144.4299999999998" cy="645.04" r="20.81" fill="#FF3565"/><circle cx="1206.845" cy="624.235" r="41.615" fill="#FF3565"/><circle cx="1290.075" cy="624.235" r="41.615" fill="#183FE1"/><circle cx="1373.305" cy="624.235" r="41.615" fill="#FF3565"/><rect x="1414.923076923077" y="582.6153846153845" width="83.23076923076923" height="83.23076923076923" fill="#ffffff"/><circle cx="1435.73" cy="603.43" r="20.81" fill="#183FE1"/><circle cx="1477.35" cy="603.43" r="20.81" fill="#183FE1"/><circle cx="1435.73" cy="645.04" r="20.81" fill="#183FE1"/><circle cx="1477.35" cy="645.04" r="20.81" fill="#183FE1"/><circle cx="1539.765" cy="624.235" r="41.615" fill="#FF3565"/><rect x="1581.3846153846152" y="582.6153846153845" width="83.23076923076923" height="83.23076923076923" fill="#ffffff"/><circle cx="1602.19" cy="603.43" r="20.81" fill="#FF3565"/><circle cx="1643.81" cy="603.43" r="20.81" fill="#183FE1"/><circle cx="1602.19" cy="645.04" r="20.81" fill="#FF3565"/><circle cx="1643.81" cy="645.04" r="20.81" fill="#FF3565"/><rect x="1664.6153846153845" y="582.6153846153845" width="83.23076923076923" height="83.23076923076923" fill="#ffffff"/><circle cx="1685.4299999999998" cy="603.43" r="20.81" fill="#FF3565"/><circle cx="1727.04" cy="603.43" r="20.81" fill="#183FE1"/><circle cx="1685.4299999999998" cy="645.04" r="20.81" fill="#183FE1"/><circle cx="1727.04" cy="645.04" r="20.81" fill="#FF3565"/><rect x="1747.8461538461538" y="582.6153846153845" width="83.23076923076923" height="83.23076923076923" fill="#ffffff"/><circle cx="1768.6599999999999" cy="603.43" r="20.81" fill="#183FE1"/><circle cx="1810.27" cy="603.43" r="20.81" fill="#183FE1"/><circle cx="1768.6599999999999" cy="645.04" r="20.81" fill="#FF3565"/><circle cx="1810.27" cy="645.04" r="20.81" fill="#FF3565"/><circle cx="1872.695" cy="624.235" r="41.615" fill="#FF3565"/><circle cx="41.615" cy="707.465" r="41.615" fill="#183FE1"/><circle cx="124.845" cy="707.465" r="41.615" fill="#FF3565"/><rect x="166.46153846153845" y="665.8461538461538" width="83.23076923076923" height="83.23076923076923" fill="#ffffff"/><circle cx="187.27" cy="686.66" r="20.81" fill="#183FE1"/><circle cx="228.89000000000001" cy="686.66" r="20.81" fill="#183FE1"/><circle cx="187.27" cy="728.27" r="20.81" fill="#FF3565"/><circle cx="228.89000000000001" cy="728.27" r="20.81" fill="#FF3565"/><circle cx="291.305" cy="707.465" r="41.615" fill="#183FE1"/><circle cx="374.535" cy="707.465" r="41.615" fill="#FF3565"/><rect x="416.15384615384613" y="665.8461538461538" width="83.23076923076923" height="83.23076923076923" fill="#ffffff"/><circle cx="436.96" cy="686.66" r="20.81" fill="#183FE1"/><circle cx="478.58" cy="686.66" r="20.81" fill="#183FE1"/><circle cx="436.96" cy="728.27" r="20.81" fill="#FF3565"/><circle cx="478.58" cy="728.27" r="20.81" fill="#183FE1"/><circle cx="540.995" cy="707.465" r="41.615" fill="#FF3565"/><circle cx="624.235" cy="707.465" r="41.615" fill="#FF3565"/><circle cx="707.465" cy="707.465" r="41.615" fill="#FF3565"/><rect x="749.0769230769231" y="665.8461538461538" width="83.23076923076923" height="83.23076923076923" fill="#ffffff"/><circle cx="769.89" cy="686.66" r="20.81" fill="#183FE1"/><circle cx="811.5" cy="686.66" r="20.81" fill="#183FE1"/><circle cx="769.89" cy="728.27" r="20.81" fill="#183FE1"/><circle cx="811.5" cy="728.27" r="20.81" fill="#183FE1"/><rect x="832.3076923076923" y="665.8461538461538" width="83.23076923076923" height="83.23076923076923" fill="#ffffff"/><circle cx="853.1199999999999" cy="686.66" r="20.81" fill="#FF3565"/><circle cx="894.7299999999999" cy="686.66" r="20.81" fill="#FF3565"/><circle cx="853.1199999999999" cy="728.27" r="20.81" fill="#183FE1"/><circle cx="894.7299999999999" cy="728.27" r="20.81" fill="#FF3565"/><rect x="915.5384615384614" y="665.8461538461538" width="83.23076923076923" height="83.23076923076923" fill="#ffffff"/><circle cx="936.3499999999999" cy="686.66" r="20.81" fill="#FF3565"/><circle cx="977.9599999999999" cy="686.66" r="20.81" fill="#FF3565"/><circle cx="936.3499999999999" cy="728.27" r="20.81" fill="#FF3565"/><circle cx="977.9599999999999" cy="728.27" r="20.81" fill="#FF3565"/><rect x="998.7692307692307" y="665.8461538461538" width="83.23076923076923" height="83.23076923076923" fill="#ffffff"/><circle cx="1019.5799999999999" cy="686.66" r="20.81" fill="#183FE1"/><circle cx="1061.19" cy="686.66" r="20.81" fill="#183FE1"/><circle cx="1019.5799999999999" cy="728.27" r="20.81" fill="#FF3565"/><circle cx="1061.19" cy="728.27" r="20.81" fill="#FF3565"/><rect x="1082" y="665.8461538461538" width="83.23076923076923" height="83.23076923076923" fill="#ffffff"/><circle cx="1102.81" cy="686.66" r="20.81" fill="#FF3565"/><circle cx="1144.4299999999998" cy="686.66" r="20.81" fill="#FF3565"/><circle cx="1102.81" cy="728.27" r="20.81" fill="#FF3565"/><circle cx="1144.4299999999998" cy="728.27" r="20.81" fill="#183FE1"/><circle cx="1206.845" cy="707.465" r="41.615" fill="#FF3565"/><rect x="1248.4615384615383" y="665.8461538461538" width="83.23076923076923" height="83.23076923076923" fill="#ffffff"/><circle cx="1269.27" cy="686.66" r="20.81" fill="#FF3565"/><circle cx="1310.8899999999999" cy="686.66" r="20.81" fill="#FF3565"/><circle cx="1269.27" cy="728.27" r="20.81" fill="#FF3565"/><circle cx="1310.8899999999999" cy="728.27" r="20.81" fill="#183FE1"/><rect x="1331.6923076923076" y="665.8461538461538" width="83.23076923076923" height="83.23076923076923" fill="#ffffff"/><circle cx="1352.5" cy="686.66" r="20.81" fill="#183FE1"/><circle cx="1394.12" cy="686.66" r="20.81" fill="#183FE1"/><circle cx="1352.5" cy="728.27" r="20.81" fill="#FF3565"/><circle cx="1394.12" cy="728.27" r="20.81" fill="#183FE1"/><rect x="1414.923076923077" y="665.8461538461538" width="83.23076923076923" height="83.23076923076923" fill="#ffffff"/><circle cx="1435.73" cy="686.66" r="20.81" fill="#183FE1"/><circle cx="1477.35" cy="686.66" r="20.81" fill="#183FE1"/><circle cx="1435.73" cy="728.27" r="20.81" fill="#183FE1"/><circle cx="1477.35" cy="728.27" r="20.81" fill="#183FE1"/><circle cx="1539.765" cy="707.465" r="41.615" fill="#FF3565"/><circle cx="1622.9950000000001" cy="707.465" r="41.615" fill="#183FE1"/><circle cx="1706.235" cy="707.465" r="41.615" fill="#FF3565"/><circle cx="1789.465" cy="707.465" r="41.615" fill="#183FE1"/><circle cx="1872.695" cy="707.465" r="41.615" fill="#183FE1"/><circle cx="41.615" cy="790.695" r="41.615" fill="#183FE1"/><circle cx="124.845" cy="790.695" r="41.615" fill="#183FE1"/><rect x="166.46153846153845" y="749.0769230769231" width="83.23076923076923" height="83.23076923076923" fill="#ffffff"/><circle cx="187.27" cy="769.89" r="20.81" fill="#FF3565"/><circle cx="228.89000000000001" cy="769.89" r="20.81" fill="#183FE1"/><circle cx="187.27" cy="811.5" r="20.81" fill="#FF3565"/><circle cx="228.89000000000001" cy="811.5" r="20.81" fill="#183FE1"/><rect x="249.69230769230768" y="749.0769230769231" width="83.23076923076923" height="83.23076923076923" fill="#ffffff"/><circle cx="270.5" cy="769.89" r="20.81" fill="#FF3565"/><circle cx="312.12" cy="769.89" r="20.81" fill="#183FE1"/><circle cx="270.5" cy="811.5" r="20.81" fill="#183FE1"/><circle cx="312.12" cy="811.5" r="20.81" fill="#FF3565"/><rect x="332.9230769230769" y="749.0769230769231" width="83.23076923076923" height="83.23076923076923" fill="#ffffff"/><circle cx="353.73" cy="769.89" r="20.81" fill="#183FE1"/><circle cx="395.35" cy="769.89" r="20.81" fill="#FF3565"/><circle cx="353.73" cy="811.5" r="20.81" fill="#183FE1"/><circle cx="395.35" cy="811.5" r="20.81" fill="#183FE1"/><rect x="416.15384615384613" y="749.0769230769231" width="83.23076923076923" height="83.23076923076923" fill="#ffffff"/><circle cx="436.96" cy="769.89" r="20.81" fill="#183FE1"/><circle cx="478.58" cy="769.89" r="20.81" fill="#183FE1"/><circle cx="436.96" cy="811.5" r="20.81" fill="#183FE1"/><circle cx="478.58" cy="811.5" r="20.81" fill="#183FE1"/><rect x="499.38461538461536" y="749.0769230769231" width="83.23076923076923" height="83.23076923076923" fill="#ffffff"/><circle cx="520.1899999999999" cy="769.89" r="20.81" fill="#FF3565"/><circle cx="561.81" cy="769.89" r="20.81" fill="#FF3565"/><circle cx="520.1899999999999" cy="811.5" r="20.81" fill="#FF3565"/><circle cx="561.81" cy="811.5" r="20.81" fill="#FF3565"/><circle cx="624.235" cy="790.695" r="41.615" fill="#183FE1"/><rect x="665.8461538461538" y="749.0769230769231" width="83.23076923076923" height="83.23076923076923" fill="#ffffff"/><circle cx="686.66" cy="769.89" r="20.81" fill="#183FE1"/><circle cx="728.27" cy="769.89" r="20.81" fill="#FF3565"/><circle cx="686.66" cy="811.5" r="20.81" fill="#183FE1"/><circle cx="728.27" cy="811.5" r="20.81" fill="#183FE1"/><circle cx="790.695" cy="790.695" r="41.615" fill="#FF3565"/><circle cx="873.925" cy="790.695" r="41.615" fill="#183FE1"/><rect x="915.5384615384614" y="749.0769230769231" width="83.23076923076923" height="83.23076923076923" fill="#ffffff"/><circle cx="936.3499999999999" cy="769.89" r="20.81" fill="#FF3565"/><circle cx="977.9599999999999" cy="769.89" r="20.81" fill="#FF3565"/><circle cx="936.3499999999999" cy="811.5" r="20.81" fill="#FF3565"/><circle cx="977.9599999999999" cy="811.5" r="20.81" fill="#183FE1"/><circle cx="1040.385" cy="790.695" r="41.615" fill="#FF3565"/><circle cx="1123.615" cy="790.695" r="41.615" fill="#FF3565"/><rect x="1165.230769230769" y="749.0769230769231" width="83.23076923076923" height="83.23076923076923" fill="#ffffff"/><circle cx="1186.04" cy="769.89" r="20.81" fill="#183FE1"/><circle cx="1227.6599999999999" cy="769.89" r="20.81" fill="#183FE1"/><circle cx="1186.04" cy="811.5" r="20.81" fill="#FF3565"/><circle cx="1227.6599999999999" cy="811.5" r="20.81" fill="#FF3565"/><rect x="1248.4615384615383" y="749.0769230769231" width="83.23076923076923" height="83.23076923076923" fill="#ffffff"/><circle cx="1269.27" cy="769.89" r="20.81" fill="#FF3565"/><circle cx="1310.8899999999999" cy="769.89" r="20.81" fill="#FF3565"/><circle cx="1269.27" cy="811.5" r="20.81" fill="#FF3565"/><circle cx="1310.8899999999999" cy="811.5" r="20.81" fill="#183FE1"/><circle cx="1373.305" cy="790.695" r="41.615" fill="#FF3565"/><circle cx="1456.535" cy="790.695" r="41.615" fill="#183FE1"/><circle cx="1539.765" cy="790.695" r="41.615" fill="#183FE1"/><circle cx="1622.9950000000001" cy="790.695" r="41.615" fill="#183FE1"/><rect x="1664.6153846153845" y="749.0769230769231" width="83.23076923076923" height="83.23076923076923" fill="#ffffff"/><circle cx="1685.4299999999998" cy="769.89" r="20.81" fill="#FF3565"/><circle cx="1727.04" cy="769.89" r="20.81" fill="#183FE1"/><circle cx="1685.4299999999998" cy="811.5" r="20.81" fill="#183FE1"/><circle cx="1727.04" cy="811.5" r="20.81" fill="#183FE1"/><rect x="1747.8461538461538" y="749.0769230769231" width="83.23076923076923" height="83.23076923076923" fill="#ffffff"/><circle cx="1768.6599999999999" cy="769.89" r="20.81" fill="#183FE1"/><circle cx="1810.27" cy="769.89" r="20.81" fill="#183FE1"/><circle cx="1768.6599999999999" cy="811.5" r="20.81" fill="#183FE1"/><circle cx="1810.27" cy="811.5" r="20.81" fill="#183FE1"/><circle cx="1872.695" cy="790.695" r="41.615" fill="#FF3565"/><rect x="0" y="832.3076923076923" width="83.23076923076923" height="83.23076923076923" fill="#ffffff"/><circle cx="20.81" cy="853.1199999999999" r="20.81" fill="#183FE1"/><circle cx="62.42999999999999" cy="853.1199999999999" r="20.81" fill="#FF3565"/><circle cx="20.81" cy="894.7299999999999" r="20.81" fill="#FF3565"/><circle cx="62.42999999999999" cy="894.7299999999999" r="20.81" fill="#FF3565"/><rect x="83.23076923076923" y="832.3076923076923" width="83.23076923076923" height="83.23076923076923" fill="#ffffff"/><circle cx="104.04" cy="853.1199999999999" r="20.81" fill="#FF3565"/><circle cx="145.66" cy="853.1199999999999" r="20.81" fill="#183FE1"/><circle cx="104.04" cy="894.7299999999999" r="20.81" fill="#FF3565"/><circle cx="145.66" cy="894.7299999999999" r="20.81" fill="#183FE1"/><circle cx="208.07500000000002" cy="873.925" r="41.615" fill="#FF3565"/><circle cx="291.305" cy="873.925" r="41.615" fill="#FF3565"/><rect x="332.9230769230769" y="832.3076923076923" width="83.23076923076923" height="83.23076923076923" fill="#ffffff"/><circle cx="353.73" cy="853.1199999999999" r="20.81" fill="#183FE1"/><circle cx="395.35" cy="853.1199999999999" r="20.81" fill="#FF3565"/><circle cx="353.73" cy="894.7299999999999" r="20.81" fill="#183FE1"/><circle cx="395.35" cy="894.7299999999999" r="20.81" fill="#183FE1"/><rect x="416.15384615384613" y="832.3076923076923" width="83.23076923076923" height="83.23076923076923" fill="#ffffff"/><circle cx="436.96" cy="853.1199999999999" r="20.81" fill="#FF3565"/><circle cx="478.58" cy="853.1199999999999" r="20.81" fill="#FF3565"/><circle cx="436.96" cy="894.7299999999999" r="20.81" fill="#183FE1"/><circle cx="478.58" cy="894.7299999999999" r="20.81" fill="#183FE1"/><circle cx="540.995" cy="873.925" r="41.615" fill="#FF3565"/><rect x="582.6153846153845" y="832.3076923076923" width="83.23076923076923" height="83.23076923076923" fill="#ffffff"/><circle cx="603.43" cy="853.1199999999999" r="20.81" fill="#FF3565"/><circle cx="645.04" cy="853.1199999999999" r="20.81" fill="#FF3565"/><circle cx="603.43" cy="894.7299999999999" r="20.81" fill="#FF3565"/><circle cx="645.04" cy="894.7299999999999" r="20.81" fill="#FF3565"/><circle cx="707.465" cy="873.925" r="41.615" fill="#FF3565"/><circle cx="790.695" cy="873.925" r="41.615" fill="#183FE1"/><circle cx="873.925" cy="873.925" r="41.615" fill="#183FE1"/><circle cx="957.155" cy="873.925" r="41.615" fill="#FF3565"/><circle cx="1040.385" cy="873.925" r="41.615" fill="#183FE1"/><circle cx="1123.615" cy="873.925" r="41.615" fill="#FF3565"/><rect x="1165.230769230769" y="832.3076923076923" width="83.23076923076923" height="83.23076923076923" fill="#ffffff"/><circle cx="1186.04" cy="853.1199999999999" r="20.81" fill="#FF3565"/><circle cx="1227.6599999999999" cy="853.1199999999999" r="20.81" fill="#FF3565"/><circle cx="1186.04" cy="894.7299999999999" r="20.81" fill="#183FE1"/><circle cx="1227.6599999999999" cy="894.7299999999999" r="20.81" fill="#FF3565"/><circle cx="1290.075" cy="873.925" r="41.615" fill="#183FE1"/><rect x="1331.6923076923076" y="832.3076923076923" width="83.23076923076923" height="83.23076923076923" fill="#ffffff"/><circle cx="1352.5" cy="853.1199999999999" r="20.81" fill="#183FE1"/><circle cx="1394.12" cy="853.1199999999999" r="20.81" fill="#FF3565"/><circle cx="1352.5" cy="894.7299999999999" r="20.81" fill="#183FE1"/><circle cx="1394.12" cy="894.7299999999999" r="20.81" fill="#183FE1"/><rect x="1414.923076923077" y="832.3076923076923" width="83.23076923076923" height="83.23076923076923" fill="#ffffff"/><circle cx="1435.73" cy="853.1199999999999" r="20.81" fill="#183FE1"/><circle cx="1477.35" cy="853.1199999999999" r="20.81" fill="#183FE1"/><circle cx="1435.73" cy="894.7299999999999" r="20.81" fill="#183FE1"/><circle cx="1477.35" cy="894.7299999999999" r="20.81" fill="#FF3565"/><rect x="1498.1538461538462" y="832.3076923076923" width="83.23076923076923" height="83.23076923076923" fill="#ffffff"/><circle cx="1518.96" cy="853.1199999999999" r="20.81" fill="#183FE1"/><circle cx="1560.58" cy="853.1199999999999" r="20.81" fill="#FF3565"/><circle cx="1518.96" cy="894.7299999999999" r="20.81" fill="#FF3565"/><circle cx="1560.58" cy="894.7299999999999" r="20.81" fill="#FF3565"/><circle cx="1622.9950000000001" cy="873.925" r="41.615" fill="#183FE1"/><rect x="1664.6153846153845" y="832.3076923076923" width="83.23076923076923" height="83.23076923076923" fill="#ffffff"/><circle cx="1685.4299999999998" cy="853.1199999999999" r="20.81" fill="#183FE1"/><circle cx="1727.04" cy="853.1199999999999" r="20.81" fill="#183FE1"/><circle cx="1685.4299999999998" cy="894.7299999999999" r="20.81" fill="#FF3565"/><circle cx="1727.04" cy="894.7299999999999" r="20.81" fill="#183FE1"/><circle cx="1789.465" cy="873.925" r="41.615" fill="#FF3565"/><circle cx="1872.695" cy="873.925" r="41.615" fill="#FF3565"/><circle cx="41.615" cy="957.155" r="41.615" fill="#183FE1"/><rect x="83.23076923076923" y="915.5384615384614" width="83.23076923076923" height="83.23076923076923" fill="#ffffff"/><circle cx="104.04" cy="936.3499999999999" r="20.81" fill="#FF3565"/><circle cx="145.66" cy="936.3499999999999" r="20.81" fill="#FF3565"/><circle cx="104.04" cy="977.9599999999999" r="20.81" fill="#183FE1"/><circle cx="145.66" cy="977.9599999999999" r="20.81" fill="#183FE1"/><rect x="166.46153846153845" y="915.5384615384614" width="83.23076923076923" height="83.23076923076923" fill="#ffffff"/><circle cx="187.27" cy="936.3499999999999" r="20.81" fill="#FF3565"/><circle cx="228.89000000000001" cy="936.3499999999999" r="20.81" fill="#183FE1"/><circle cx="187.27" cy="977.9599999999999" r="20.81" fill="#183FE1"/><circle cx="228.89000000000001" cy="977.9599999999999" r="20.81" fill="#FF3565"/><rect x="249.69230769230768" y="915.5384615384614" width="83.23076923076923" height="83.23076923076923" fill="#ffffff"/><circle cx="270.5" cy="936.3499999999999" r="20.81" fill="#FF3565"/><circle cx="312.12" cy="936.3499999999999" r="20.81" fill="#FF3565"/><circle cx="270.5" cy="977.9599999999999" r="20.81" fill="#FF3565"/><circle cx="312.12" cy="977.9599999999999" r="20.81" fill="#FF3565"/><circle cx="374.535" cy="957.155" r="41.615" fill="#FF3565"/><rect x="416.15384615384613" y="915.5384615384614" width="83.23076923076923" height="83.23076923076923" fill="#ffffff"/><circle cx="436.96" cy="936.3499999999999" r="20.81" fill="#FF3565"/><circle cx="478.58" cy="936.3499999999999" r="20.81" fill="#183FE1"/><circle cx="436.96" cy="977.9599999999999" r="20.81" fill="#183FE1"/><circle cx="478.58" cy="977.9599999999999" r="20.81" fill="#FF3565"/><rect x="499.38461538461536" y="915.5384615384614" width="83.23076923076923" height="83.23076923076923" fill="#ffffff"/><circle cx="520.1899999999999" cy="936.3499999999999" r="20.81" fill="#183FE1"/><circle cx="561.81" cy="936.3499999999999" r="20.81" fill="#183FE1"/><circle cx="520.1899999999999" cy="977.9599999999999" r="20.81" fill="#FF3565"/><circle cx="561.81" cy="977.9599999999999" r="20.81" fill="#FF3565"/><rect x="582.6153846153845" y="915.5384615384614" width="83.23076923076923" height="83.23076923076923" fill="#ffffff"/><circle cx="603.43" cy="936.3499999999999" r="20.81" fill="#FF3565"/><circle cx="645.04" cy="936.3499999999999" r="20.81" fill="#183FE1"/><circle cx="603.43" cy="977.9599999999999" r="20.81" fill="#183FE1"/><circle cx="645.04" cy="977.9599999999999" r="20.81" fill="#FF3565"/><circle cx="707.465" cy="957.155" r="41.615" fill="#183FE1"/><circle cx="790.695" cy="957.155" r="41.615" fill="#183FE1"/><rect x="832.3076923076923" y="915.5384615384614" width="83.23076923076923" height="83.23076923076923" fill="#ffffff"/><circle cx="853.1199999999999" cy="936.3499999999999" r="20.81" fill="#183FE1"/><circle cx="894.7299999999999" cy="936.3499999999999" r="20.81" fill="#183FE1"/><circle cx="853.1199999999999" cy="977.9599999999999" r="20.81" fill="#183FE1"/><circle cx="894.7299999999999" cy="977.9599999999999" r="20.81" fill="#183FE1"/><circle cx="957.155" cy="957.155" r="41.615" fill="#183FE1"/><rect x="998.7692307692307" y="915.5384615384614" width="83.23076923076923" height="83.23076923076923" fill="#ffffff"/><circle cx="1019.5799999999999" cy="936.3499999999999" r="20.81" fill="#183FE1"/><circle cx="1061.19" cy="936.3499999999999" r="20.81" fill="#FF3565"/><circle cx="1019.5799999999999" cy="977.9599999999999" r="20.81" fill="#183FE1"/><circle cx="1061.19" cy="977.9599999999999" r="20.81" fill="#183FE1"/><circle cx="1123.615" cy="957.155" r="41.615" fill="#183FE1"/><rect x="1165.230769230769" y="915.5384615384614" width="83.23076923076923" height="83.23076923076923" fill="#ffffff"/><circle cx="1186.04" cy="936.3499999999999" r="20.81" fill="#183FE1"/><circle cx="1227.6599999999999" cy="936.3499999999999" r="20.81" fill="#183FE1"/><circle cx="1186.04" cy="977.9599999999999" r="20.81" fill="#FF3565"/><circle cx="1227.6599999999999" cy="977.9599999999999" r="20.81" fill="#183FE1"/><circle cx="1290.075" cy="957.155" r="41.615" fill="#FF3565"/><circle cx="1373.305" cy="957.155" r="41.615" fill="#183FE1"/><circle cx="1456.535" cy="957.155" r="41.615" fill="#FF3565"/><rect x="1498.1538461538462" y="915.5384615384614" width="83.23076923076923" height="83.23076923076923" fill="#ffffff"/><circle cx="1518.96" cy="936.3499999999999" r="20.81" fill="#FF3565"/><circle cx="1560.58" cy="936.3499999999999" r="20.81" fill="#FF3565"/><circle cx="1518.96" cy="977.9599999999999" r="20.81" fill="#183FE1"/><circle cx="1560.58" cy="977.9599999999999" r="20.81" fill="#183FE1"/><circle cx="1622.9950000000001" cy="957.155" r="41.615" fill="#FF3565"/><rect x="1664.6153846153845" y="915.5384615384614" width="83.23076923076923" height="83.23076923076923" fill="#ffffff"/><circle cx="1685.4299999999998" cy="936.3499999999999" r="20.81" fill="#183FE1"/><circle cx="1727.04" cy="936.3499999999999" r="20.81" fill="#183FE1"/><circle cx="1685.4299999999998" cy="977.9599999999999" r="20.81" fill="#FF3565"/><circle cx="1727.04" cy="977.9599999999999" r="20.81" fill="#183FE1"/><rect x="1747.8461538461538" y="915.5384615384614" width="83.23076923076923" height="83.23076923076923" fill="#ffffff"/><circle cx="1768.6599999999999" cy="936.3499999999999" r="20.81" fill="#FF3565"/><circle cx="1810.27" cy="936.3499999999999" r="20.81" fill="#183FE1"/><circle cx="1768.6599999999999" cy="977.9599999999999" r="20.81" fill="#183FE1"/><circle cx="1810.27" cy="977.9599999999999" r="20.81" fill="#183FE1"/><rect x="1831.0769230769229" y="915.5384615384614" width="83.23076923076923" height="83.23076923076923" fill="#ffffff"/><circle cx="1851.8899999999999" cy="936.3499999999999" r="20.81" fill="#183FE1"/><circle cx="1893.5" cy="936.3499999999999" r="20.81" fill="#FF3565"/><circle cx="1851.8899999999999" cy="977.9599999999999" r="20.81" fill="#183FE1"/><circle cx="1893.5" cy="977.9599999999999" r="20.81" fill="#FF3565"/><circle cx="41.615" cy="1040.385" r="41.615" fill="#183FE1"/><rect x="83.23076923076923" y="998.7692307692307" width="83.23076923076923" height="83.23076923076923" fill="#ffffff"/><circle cx="104.04" cy="1019.5799999999999" r="20.81" fill="#183FE1"/><circle cx="145.66" cy="1019.5799999999999" r="20.81" fill="#183FE1"/><circle cx="104.04" cy="1061.19" r="20.81" fill="#FF3565"/><circle cx="145.66" cy="1061.19" r="20.81" fill="#FF3565"/><circle cx="208.07500000000002" cy="1040.385" r="41.615" fill="#FF3565"/><circle cx="291.305" cy="1040.385" r="41.615" fill="#FF3565"/><circle cx="374.535" cy="1040.385" r="41.615" fill="#183FE1"/><rect x="416.15384615384613" y="998.7692307692307" width="83.23076923076923" height="83.23076923076923" fill="#ffffff"/><circle cx="436.96" cy="1019.5799999999999" r="20.81" fill="#FF3565"/><circle cx="478.58" cy="1019.5799999999999" r="20.81" fill="#183FE1"/><circle cx="436.96" cy="1061.19" r="20.81" fill="#183FE1"/><circle cx="478.58" cy="1061.19" r="20.81" fill="#183FE1"/><rect x="499.38461538461536" y="998.7692307692307" width="83.23076923076923" height="83.23076923076923" fill="#ffffff"/><circle cx="520.1899999999999" cy="1019.5799999999999" r="20.81" fill="#FF3565"/><circle cx="561.81" cy="1019.5799999999999" r="20.81" fill="#FF3565"/><circle cx="520.1899999999999" cy="1061.19" r="20.81" fill="#FF3565"/><circle cx="561.81" cy="1061.19" r="20.81" fill="#FF3565"/><rect x="582.6153846153845" y="998.7692307692307" width="83.23076923076923" height="83.23076923076923" fill="#ffffff"/><circle cx="603.43" cy="1019.5799999999999" r="20.81" fill="#183FE1"/><circle cx="645.04" cy="1019.5799999999999" r="20.81" fill="#183FE1"/><circle cx="603.43" cy="1061.19" r="20.81" fill="#183FE1"/><circle cx="645.04" cy="1061.19" r="20.81" fill="#183FE1"/><rect x="665.8461538461538" y="998.7692307692307" width="83.23076923076923" height="83.23076923076923" fill="#ffffff"/><circle cx="686.66" cy="1019.5799999999999" r="20.81" fill="#FF3565"/><circle cx="728.27" cy="1019.5799999999999" r="20.81" fill="#FF3565"/><circle cx="686.66" cy="1061.19" r="20.81" fill="#183FE1"/><circle cx="728.27" cy="1061.19" r="20.81" fill="#FF3565"/><rect x="749.0769230769231" y="998.7692307692307" width="83.23076923076923" height="83.23076923076923" fill="#ffffff"/><circle cx="769.89" cy="1019.5799999999999" r="20.81" fill="#FF3565"/><circle cx="811.5" cy="1019.5799999999999" r="20.81" fill="#FF3565"/><circle cx="769.89" cy="1061.19" r="20.81" fill="#FF3565"/><circle cx="811.5" cy="1061.19" r="20.81" fill="#FF3565"/><rect x="832.3076923076923" y="998.7692307692307" width="83.23076923076923" height="83.23076923076923" fill="#ffffff"/><circle cx="853.1199999999999" cy="1019.5799999999999" r="20.81" fill="#183FE1"/><circle cx="894.7299999999999" cy="1019.5799999999999" r="20.81" fill="#183FE1"/><circle cx="853.1199999999999" cy="1061.19" r="20.81" fill="#FF3565"/><circle cx="894.7299999999999" cy="1061.19" r="20.81" fill="#FF3565"/><circle cx="957.155" cy="1040.385" r="41.615" fill="#183FE1"/><circle cx="1040.385" cy="1040.385" r="41.615" fill="#FF3565"/><rect x="1082" y="998.7692307692307" width="83.23076923076923" height="83.23076923076923" fill="#ffffff"/><circle cx="1102.81" cy="1019.5799999999999" r="20.81" fill="#FF3565"/><circle cx="1144.4299999999998" cy="1019.5799999999999" r="20.81" fill="#183FE1"/><circle cx="1102.81" cy="1061.19" r="20.81" fill="#183FE1"/><circle cx="1144.4299999999998" cy="1061.19" r="20.81" fill="#FF3565"/><rect x="1165.230769230769" y="998.7692307692307" width="83.23076923076923" height="83.23076923076923" fill="#ffffff"/><circle cx="1186.04" cy="1019.5799999999999" r="20.81" fill="#183FE1"/><circle cx="1227.6599999999999" cy="1019.5799999999999" r="20.81" fill="#FF3565"/><circle cx="1186.04" cy="1061.19" r="20.81" fill="#183FE1"/><circle cx="1227.6599999999999" cy="1061.19" r="20.81" fill="#183FE1"/><circle cx="1290.075" cy="1040.385" r="41.615" fill="#FF3565"/><circle cx="1373.305" cy="1040.385" r="41.615" fill="#FF3565"/><circle cx="1456.535" cy="1040.385" r="41.615" fill="#183FE1"/><rect x="1498.1538461538462" y="998.7692307692307" width="83.23076923076923" height="83.23076923076923" fill="#ffffff"/><circle cx="1518.96" cy="1019.5799999999999" r="20.81" fill="#183FE1"/><circle cx="1560.58" cy="1019.5799999999999" r="20.81" fill="#183FE1"/><circle cx="1518.96" cy="1061.19" r="20.81" fill="#183FE1"/><circle cx="1560.58" cy="1061.19" r="20.81" fill="#FF3565"/><circle cx="1622.9950000000001" cy="1040.385" r="41.615" fill="#FF3565"/><circle cx="1706.235" cy="1040.385" r="41.615" fill="#183FE1"/><rect x="1747.8461538461538" y="998.7692307692307" width="83.23076923076923" height="83.23076923076923" fill="#ffffff"/><circle cx="1768.6599999999999" cy="1019.5799999999999" r="20.81" fill="#FF3565"/><circle cx="1810.27" cy="1019.5799999999999" r="20.81" fill="#FF3565"/><circle cx="1768.6599999999999" cy="1061.19" r="20.81" fill="#183FE1"/><circle cx="1810.27" cy="1061.19" r="20.81" fill="#183FE1"/><rect x="1831.0769230769229" y="998.7692307692307" width="83.23076923076923" height="83.23076923076923" fill="#ffffff"/><circle cx="1851.8899999999999" cy="1019.5799999999999" r="20.81" fill="#183FE1"/><circle cx="1893.5" cy="1019.5799999999999" r="20.81" fill="#183FE1"/><circle cx="1851.8899999999999" cy="1061.19" r="20.81" fill="#183FE1"/><circle cx="1893.5" cy="1061.19" r="20.81" fill="#183FE1"/></g></svg>