<svg width="276" height="186" viewBox="0 0 276 186" fill="none" xmlns="http://www.w3.org/2000/svg">
<rect x="202.5" y="139" width="4.897" height="1.83" transform="rotate(-73 202.5 139)" fill="#BA3E03" fill-opacity="0.6"/>
<rect x="83.5" y="43" width="10.897" height="2.83" transform="rotate(-85 83.5 43)" fill="#BA3E03" fill-opacity="0.6"/>
<rect x="125.5" y="6" width="5.897" height="1.83" transform="rotate(67 125.5 6)" fill="#03A3F5" fill-opacity="0.75"/>
<rect x="4.5" y="176" width="2.897" height="1.83" transform="rotate(25 4.5 176)" fill="#9AF5FC" fill-opacity="0.45"/>
<rect x="225.5" y="38" width="3.897" height="1.83" transform="rotate(161 225.5 38)" fill="#FFED36" fill-opacity="0.75"/>
<rect x="141.5" y="171" width="4.897" height="2.83" transform="rotate(24 141.5 171)" fill="#F54721" fill-opacity="0.6"/>
<rect x="171.5" y="150" width="8.897" height="2.83" transform="rotate(-40 171.5 150)" fill="#9DED1A" fill-opacity="0.45"/>
<rect x="15.5" y="37" width="6.897" height="3.83" transform="rotate(132 15.5 37)" fill="#480CA7" fill-opacity="0.35"/>
<rect x="266.5" y="157" width="6.897" height="3.83" transform="rotate(153 266.5 157)" fill="#F62584" fill-opacity="0.35"/>
<rect x="110.5" y="136" width="6.897" height="3.83" transform="rotate(173 110.5 136)" fill="#9AF5FC" fill-opacity="0.85"/>
<rect x="213.5" y="161" width="5.897" height="2.83" transform="rotate(-167 213.5 161)" fill="#FF21FB" fill-opacity="0.6"/>
<rect x="210.5" y="155" width="3.897" height="3.83" transform="rotate(-22 210.5 155)" fill="#FC9E1C" fill-opacity="0.9"/>
<rect x="186.5" y="146" width="6.897" height="3.83" transform="rotate(131 186.5 146)" fill="#03A3F5" fill-opacity="0.85"/>
<rect x="122.5" y="50" width="5.897" height="2.83" transform="rotate(-142 122.5 50)" fill="#C9FCBE" fill-opacity="0.45"/>
<rect x="123.5" y="158" width="7.897" height="2.83" transform="rotate(72 123.5 158)" fill="#755FFE"/>
<rect x="163.5" y="122" width="8.897" height="3.83" transform="rotate(-164 163.5 122)" fill="#F62584"/>
<rect x="228.5" y="118" width="2.897" height="1.83" transform="rotate(-64 228.5 118)" fill="#03A3F5"/>
<rect x="175.5" y="109" width="8.897" height="1.83" transform="rotate(4 175.5 109)" fill="#DCBCFA" fill-opacity="0.65"/>
<rect x="237.5" y="107" width="4.897" height="3.83" transform="rotate(26 237.5 107)" fill="#755FFE" fill-opacity="0.85"/>
<rect x="62.5" y="172" width="2.897" height="3.83" transform="rotate(-119 62.5 172)" fill="#755FFE" fill-opacity="0.65"/>
<rect x="181.5" y="134" width="2.897" height="1.83" transform="rotate(-104 181.5 134)" fill="#C9FCBE"/>
<rect x="121.5" y="150" width="6.897" height="2.83" transform="rotate(-153 121.5 150)" fill="#C9FCBE"/>
<circle cx="255.678" cy="20.1775" r="2.1775" fill="#F62584" fill-opacity="0.6"/>
<circle cx="27.1775" cy="34.6775" r="1.6775" fill="#F62584" fill-opacity="0.65"/>
<circle cx="235.178" cy="147.678" r="0.6775" fill="#480CA7" fill-opacity="0.6"/>
<circle cx="45.1775" cy="127.677" r="1.6775" fill="#03A3F5" fill-opacity="0.45"/>
<circle cx="89.6775" cy="142.178" r="1.1775" fill="#BA3E03"/>
<circle cx="136.178" cy="99.6775" r="0.6775" fill="#BA3E03" fill-opacity="0.45"/>
<circle cx="251.678" cy="142.178" r="1.1775" fill="#BA3E03"/>
<circle cx="118.177" cy="167.678" r="1.6775" fill="#FF21FB" fill-opacity="0.65"/>
<circle cx="6.6775" cy="64.1775" r="1.1775" fill="#755FFE" fill-opacity="0.65"/>
<circle cx="216.678" cy="87.1775" r="1.1775" fill="#DCBCFA" fill-opacity="0.75"/>
<circle cx="10.6775" cy="18.1775" r="1.1775" fill="#BA3E03" fill-opacity="0.9"/>
<circle cx="25.6775" cy="147.178" r="1.1775" fill="#FFED36" fill-opacity="0.35"/>
<circle cx="71.6775" cy="108.177" r="1.1775" fill="#C9FCBE" fill-opacity="0.85"/>
<circle cx="147.678" cy="37.1775" r="2.1775" fill="#FF21FB" fill-opacity="0.35"/>
<circle cx="121.177" cy="180.678" r="1.6775" fill="#03A3F5" fill-opacity="0.45"/>
<circle cx="222.178" cy="183.678" r="1.6775" fill="#4BC8EF" fill-opacity="0.85"/>
<circle cx="125.677" cy="8.1775" r="1.1775" fill="#FC9E1C" fill-opacity="0.6"/>
<circle cx="189.178" cy="75.6775" r="0.6775" fill="#FFED36" fill-opacity="0.9"/>
<circle cx="190.678" cy="141.178" r="1.1775" fill="#755FFE" fill-opacity="0.85"/>
<circle cx="156.178" cy="64.6775" r="1.6775" fill="#FC9E1C" fill-opacity="0.6"/>
<circle cx="60.6775" cy="136.178" r="2.1775" fill="#DCBCFA" fill-opacity="0.9"/>
<circle cx="176.178" cy="3.6775" r="1.6775" fill="#DCBCFA"/>
<circle cx="191.178" cy="129.678" r="1.6775" fill="#03A3F5"/>
<path d="M204.138 57.1291L206.647 57.8961L205.88 60.4049L203.371 59.6379L204.138 57.1291Z" fill="#9DED1A" fill-opacity="0.35"/>
<path d="M200.979 57.6597L199.799 53.7985L203.66 52.618L204.84 56.4792L200.979 57.6597Z" fill="#BA3E03"/>
<path d="M90.1493 166.309L88.4898 167.267L87.5316 165.607L89.1912 164.649L90.1493 166.309Z" fill="#F62584" fill-opacity="0.35"/>
<path d="M75.0113 120.217L78.1288 119.44L77.2432 122.528L75.0113 120.217Z" fill="#F62584" fill-opacity="0.6"/>
<path d="M145.665 75.2697L149.038 71.6532L150.484 76.3821L145.665 75.2697Z" fill="#480CA7" fill-opacity="0.65"/>
<path d="M107.188 127.449L104.512 124.371L108.516 123.593L107.188 127.449Z" fill="#755FFE" fill-opacity="0.75"/>
<path d="M219.765 1.35666L220.182 3.16412L218.826 4.42922L217.052 3.88688L216.635 2.07942L217.991 0.814312L219.765 1.35666Z" fill="#C9FCBE" fill-opacity="0.65"/>
<path d="M157.837 74.713L160.462 76.7634L158.411 79.3879L155.787 77.3374L157.837 74.713Z" fill="#FFED36" fill-opacity="0.6"/>
<path d="M117.332 119.92L114.075 117.465L117.829 115.872L117.332 119.92Z" fill="#755FFE" fill-opacity="0.85"/>
<path d="M126.121 146.759L125.668 144.626L127.557 143.535L129.177 144.995L128.29 146.987L126.121 146.759Z" fill="#4BC8EF" fill-opacity="0.45"/>
<path d="M3.2733 86.7667L0.279895 85.3067L1.73988 82.3133L4.73329 83.7733L3.2733 86.7667Z" fill="#FF21FB" fill-opacity="0.35"/>
<path d="M192.138 137.129L194.863 138.832L192.026 140.34L192.138 137.129Z" fill="#DCBCFA" fill-opacity="0.6"/>
<path d="M261.752 112.566L260.437 116.384L256.619 115.069L257.934 111.252L261.752 112.566Z" fill="#FC9E1C" fill-opacity="0.45"/>
<path d="M149.618 161.184L147.27 162.651L145.149 160.871L146.186 158.304L148.948 158.497L149.618 161.184Z" fill="#DCBCFA" fill-opacity="0.85"/>
<path d="M139.548 44.6831L138.515 42.5664L139.832 40.6141L142.181 40.7783L143.214 42.895L141.897 44.8474L139.548 44.6831Z" fill="#DCBCFA" fill-opacity="0.65"/>
<path d="M125.665 62.7303L122.985 64.7501L120.236 62.825L121.217 59.6154L124.573 59.5568L125.665 62.7303Z" fill="#9DED1A" fill-opacity="0.35"/>
<path d="M268.066 39.2515L269.642 42.2149L267.31 44.6292L264.294 43.1579L264.761 39.8344L268.066 39.2515Z" fill="#755FFE" fill-opacity="0.65"/>
<path d="M60.174 144.632L58.3438 143.15L58.7122 140.824L60.9108 139.98L62.741 141.462L62.3726 143.788L60.174 144.632Z" fill="#755FFE" fill-opacity="0.35"/>
<path d="M109.842 65.8114L111.098 66.319L111.287 67.6608L110.219 68.495L108.963 67.9875L108.774 66.6456L109.842 65.8114Z" fill="#FFED36" fill-opacity="0.35"/>
<path d="M247.792 80.2752L247.401 77.0862L250.358 78.3416L247.792 80.2752Z" fill="#9AF5FC" fill-opacity="0.6"/>
<path d="M107.785 9.56973L109.565 11.6905L108.098 14.0383L105.411 13.3685L105.218 10.6068L107.785 9.56973Z" fill="#DCBCFA" fill-opacity="0.9"/>
<path d="M188.458 59.0419L189.767 58.6912L190.725 59.6493L190.374 60.9581L189.066 61.3088L188.107 60.3507L188.458 59.0419Z" fill="#480CA7" fill-opacity="0.75"/>
<path d="M53.252 146.997L50.6852 148.034L48.9056 145.913L50.3727 143.566L53.0589 144.235L53.252 146.997Z" fill="#03A3F5" fill-opacity="0.6"/>
<path d="M147.921 173.808L148.99 174.531L149.748 173.486L149.656 174.773L150.94 174.907L149.779 175.471L150.306 176.65L149.236 175.926L148.479 176.972L148.571 175.684L147.287 175.551L148.448 174.986L147.921 173.808Z" fill="#FF21FB" fill-opacity="0.85"/>
<path d="M270.355 147.05L270.961 149.033L273.035 149.07L271.336 150.259L271.942 152.243L270.286 150.995L268.587 152.184L269.262 150.223L267.605 148.975L269.679 149.011L270.355 147.05Z" fill="#03A3F5" fill-opacity="0.6"/>
<path d="M220.072 158.527L221.46 156.986L220.423 155.19L222.318 156.033L223.706 154.492L223.489 156.555L225.384 157.398L223.355 157.83L223.139 159.893L222.101 158.096L220.072 158.527Z" fill="#9AF5FC"/>
<path d="M267.532 114.145L268.895 113.668L269.419 112.323L269.897 113.685L271.242 114.21L269.879 114.687L269.355 116.032L268.877 114.67L267.532 114.145Z" fill="#FF21FB" fill-opacity="0.9"/>
<path d="M246.013 23.5788L248.189 24.0292L249.947 22.6706L249.497 24.8464L250.855 26.6047L248.679 26.1543L246.921 27.5129L247.372 25.3371L246.013 23.5788Z" fill="#480CA7" fill-opacity="0.6"/>
<path d="M111.896 152.296L111.057 152.935L110.997 153.988L110.357 153.149L109.305 153.088L110.143 152.449L110.204 151.396L110.843 152.235L111.896 152.296Z" fill="#9DED1A" fill-opacity="0.9"/>
<path d="M230.67 55.518L231.312 54.0101L229.826 53.3194L231.453 53.1217L231.308 51.4892L232.293 52.7993L233.634 51.8576L232.992 53.3654L234.478 54.0562L232.851 54.2539L232.996 55.8864L232.011 54.5762L230.67 55.518Z" fill="#F62584" fill-opacity="0.65"/>
<path d="M243.301 59.844L242.092 58.4671L240.259 58.4893L241.636 57.2795L241.614 55.4468L242.823 56.8236L244.656 56.8014L243.279 58.0112L243.301 59.844Z" fill="#03A3F5" fill-opacity="0.6"/>
<path d="M2.93027 62.715L4.35064 61.8973L3.5794 60.4512L4.9977 61.2724L5.86445 59.8815L5.86239 61.5204L7.50037 61.5755L6.08 62.3932L6.85124 63.8393L5.43294 63.018L4.56619 64.409L4.56825 62.7701L2.93027 62.715Z" fill="#BA3E03" fill-opacity="0.75"/>
<path d="M126.826 106.368L127.185 108.166L128.784 109.063L126.986 109.422L126.089 111.02L125.73 109.223L124.132 108.326L125.929 107.967L126.826 106.368Z" fill="#FC9E1C" fill-opacity="0.45"/>
<path d="M138.57 23.6471L136.981 24.9804L137.758 26.9037L135.998 25.8045L134.409 27.1378L134.911 25.1251L133.152 24.0259L135.221 23.8812L135.723 21.8686L136.5 23.7918L138.57 23.6471Z" fill="#DCBCFA" fill-opacity="0.75"/>
<path d="M50.1056 157.445L50.6425 155.441L48.9028 154.312L50.9743 154.203L51.5111 152.2L52.2545 154.136L54.3259 154.028L52.7139 155.333L53.4572 157.269L51.7176 156.14L50.1056 157.445Z" fill="#4BC8EF" fill-opacity="0.65"/>
<path d="M93.4055 140.352L92.4829 140.547L92.6478 141.475L92.0177 140.773L91.2961 141.381L91.5886 140.484L90.7021 140.163L91.6247 139.968L91.4598 139.039L92.0899 139.741L92.8115 139.134L92.519 140.03L93.4055 140.352Z" fill="#03A3F5" fill-opacity="0.85"/>
<path d="M258.666 151.932L259.221 151.17L258.477 150.59L259.415 150.69L259.545 149.756L259.927 150.618L260.801 150.264L260.246 151.026L260.99 151.606L260.052 151.506L259.922 152.44L259.54 151.578L258.666 151.932Z" fill="#DCBCFA" fill-opacity="0.45"/>
<path d="M141.106 83.2777L142.565 84.0235L143.358 82.5891L143.442 84.2259L145.081 84.1952L143.705 85.0861L144.551 86.4899L143.091 85.744L142.299 87.1784L142.215 85.5416L140.576 85.5723L141.952 84.6814L141.106 83.2777Z" fill="#03A3F5" fill-opacity="0.75"/>
<path d="M163.055 120.394L161.727 122.176L162.215 124.344L160.434 123.016L158.266 123.504L159.594 121.723L159.106 119.555L160.887 120.883L163.055 120.394Z" fill="#F54721" fill-opacity="0.65"/>
<path d="M31.6417 109.06L30.4814 110.217L31.6006 111.414L30.0181 110.988L29.5409 112.556L29.1187 110.973L27.5223 111.343L28.6826 110.186L27.5634 108.989L29.1459 109.415L29.6231 107.847L30.0453 109.43L31.6417 109.06Z" fill="#03A3F5" fill-opacity="0.75"/>
<path d="M12.5411 172.355L10.9233 172.912L10.9532 174.622L9.92346 173.256L8.30567 173.813L9.28707 172.411L8.25736 171.045L9.8936 171.545L10.875 170.144L10.9049 171.854L12.5411 172.355Z" fill="#FF21FB" fill-opacity="0.9"/>
<path d="M13.2621 85.4489L13.3301 84.3965L12.5754 83.6599L13.6278 83.7278L14.3644 82.9732L14.2965 84.0255L15.0511 84.7621L13.9988 84.6942L13.2621 85.4489Z" fill="#755FFE" fill-opacity="0.6"/>
<path d="M156.25 19.4242L157.873 20.276L159.576 19.5985L158.724 21.2214L159.402 22.9244L157.779 22.0726L156.076 22.7501L156.928 21.1272L156.25 19.4242Z" fill="#755FFE" fill-opacity="0.65"/>
<path d="M271.726 33.1588L273.049 32.9017L273.213 31.564L273.867 32.7427L275.19 32.4856L274.271 33.4712L274.924 34.65L273.702 34.0804L272.783 35.0661L272.948 33.7284L271.726 33.1588Z" fill="#480CA7" fill-opacity="0.6"/>
<path d="M204.532 181.855L203.297 182.231L203.633 183.477L202.69 182.596L201.778 183.51L202.07 182.252L200.823 181.919L202.058 181.544L201.722 180.297L202.665 181.179L203.577 180.265L203.285 181.522L204.532 181.855Z" fill="#F54721" fill-opacity="0.85"/>
<path d="M60.8567 106.265L60.2871 107.487L61.2728 108.406L59.9351 108.241L59.3655 109.463L59.1083 108.14L57.7706 107.976L58.9494 107.322L58.6922 105.999L59.6779 106.919L60.8567 106.265Z" fill="#FFED36" fill-opacity="0.75"/>
<g filter="url(#filter0_dd_561_12625)">
<path d="M138 35.5C152.852 35.5 167.096 41.4 177.598 51.902C188.1 62.4041 194 76.6479 194 91.5C194 106.352 188.1 120.596 177.598 131.098C167.096 141.6 152.852 147.5 138 147.5C123.148 147.5 108.904 141.6 98.402 131.098C87.9 120.596 82 106.352 82 91.5C82 76.6479 87.9 62.4041 98.402 51.902C108.904 41.4 123.148 35.5 138 35.5ZM131.024 102.548L118.584 90.1C118.138 89.654 117.609 89.3003 117.026 89.0589C116.443 88.8176 115.819 88.6933 115.188 88.6933C114.557 88.6933 113.933 88.8176 113.35 89.0589C112.767 89.3003 112.238 89.654 111.792 90.1C110.891 91.0007 110.385 92.2223 110.385 93.496C110.385 94.7697 110.891 95.9913 111.792 96.892L127.632 112.732C128.077 113.18 128.606 113.536 129.189 113.779C129.771 114.021 130.397 114.146 131.028 114.146C131.659 114.146 132.285 114.021 132.867 113.779C133.45 113.536 133.979 113.18 134.424 112.732L167.224 79.924C167.676 79.4799 168.035 78.9507 168.282 78.3669C168.528 77.7832 168.657 77.1564 168.66 76.5228C168.662 75.8892 168.54 75.2612 168.299 74.6752C168.058 74.0892 167.703 73.5566 167.256 73.1083C166.808 72.66 166.276 72.3048 165.69 72.0632C165.104 71.8215 164.477 71.6983 163.843 71.7005C163.209 71.7027 162.582 71.8303 161.998 72.076C161.414 72.3217 160.885 72.6806 160.44 73.132L131.024 102.548Z" fill="#198754"/>
</g>
<defs>
<filter id="filter0_dd_561_12625" x="74" y="29.5" width="128" height="128" filterUnits="userSpaceOnUse" color-interpolation-filters="sRGB">
<feFlood flood-opacity="0" result="BackgroundImageFix"/>
<feColorMatrix in="SourceAlpha" type="matrix" values="0 0 0 0 0 0 0 0 0 0 0 0 0 0 0 0 0 0 127 0" result="hardAlpha"/>
<feMorphology radius="2" operator="dilate" in="SourceAlpha" result="effect1_dropShadow_561_12625"/>
<feOffset dy="2"/>
<feGaussianBlur stdDeviation="3"/>
<feColorMatrix type="matrix" values="0 0 0 0 0 0 0 0 0 0 0 0 0 0 0 0 0 0 0.15 0"/>
<feBlend mode="normal" in2="BackgroundImageFix" result="effect1_dropShadow_561_12625"/>
<feColorMatrix in="SourceAlpha" type="matrix" values="0 0 0 0 0 0 0 0 0 0 0 0 0 0 0 0 0 0 127 0" result="hardAlpha"/>
<feOffset dy="1"/>
<feGaussianBlur stdDeviation="1"/>
<feColorMatrix type="matrix" values="0 0 0 0 0 0 0 0 0 0 0 0 0 0 0 0 0 0 0.3 0"/>
<feBlend mode="normal" in2="effect1_dropShadow_561_12625" result="effect2_dropShadow_561_12625"/>
<feBlend mode="normal" in="SourceGraphic" in2="effect2_dropShadow_561_12625" result="shape"/>
</filter>
</defs>
</svg>
